<svg xmlns="http://www.w3.org/2000/svg" viewBox="0 0 457 190.68"><defs><style>.cls-1,.cls-3,.cls-7,.cls-8{fill:none;stroke-miterlimit:10;}.cls-1,.cls-3{stroke:#999;}.cls-2{fill:#999;}.cls-3,.cls-7,.cls-8{stroke-width:2px;}.cls-4{fill:#fff;}.cls-5{fill:gray;}.cls-6{fill:#b3b3b3;}.cls-7{stroke:gray;}.cls-8{stroke:#b3b3b3;}.cls-9{fill:#29abe2;}.cls-10{fill:#f0f;}.cls-11{fill:#fbb03b;}.cls-12{fill:#ff1d25;}</style></defs><title>by-reference</title><g id="Layer_2" data-name="Layer 2"><g id="Layer_1-2" data-name="Layer 1"><rect class="cls-1" x="49.75" y="0.5" width="356.5" height="41"/><path class="cls-2" d="M163.2,27.74a4.87,4.87,0,0,1-4.14-2.06,9.84,9.84,0,0,1-1.52-5.93c0-2.59.5-4.55,1.52-5.87a5.32,5.32,0,0,1,8.28,0,9.5,9.5,0,0,1,1.53,5.87,9.84,9.84,0,0,1-1.53,5.93A4.85,4.85,0,0,1,163.2,27.74Zm0-13.68a2.7,2.7,0,0,0-1.27.3,2.6,2.6,0,0,0-1,1,5.49,5.49,0,0,0-.66,1.76,12.55,12.55,0,0,0-.24,2.65,13,13,0,0,0,.24,2.68,5.92,5.92,0,0,0,.66,1.81,2.8,2.8,0,0,0,1,1,2.66,2.66,0,0,0,2.53,0,2.82,2.82,0,0,0,1-1,5.92,5.92,0,0,0,.66-1.81,13,13,0,0,0,.24-2.68,12.55,12.55,0,0,0-.24-2.65,5.49,5.49,0,0,0-.66-1.76,2.62,2.62,0,0,0-1-1A2.72,2.72,0,0,0,163.2,14.06Zm0,7.3A1.6,1.6,0,0,1,162,20.9a1.83,1.83,0,0,1,0-2.49A1.6,1.6,0,0,1,163.2,18a1.71,1.71,0,1,1,0,3.41Z"/><path class="cls-2" d="M175.9,21.34l-4-5.67h3l1.54,2.23c.19.32.4.66.62,1l.68,1h.09c.18-.34.37-.68.58-1s.4-.69.57-1l1.39-2.21h2.91l-4,6,4.3,5.84h-3l-1.71-2.33-.7-1c-.25-.37-.5-.72-.74-1.06h-.09c-.23.35-.44.7-.64,1s-.41.7-.63,1.07l-1.54,2.31h-2.91Z"/><path class="cls-2" d="M192,27.74a4.87,4.87,0,0,1-4.14-2.06,9.84,9.84,0,0,1-1.52-5.93c0-2.59.5-4.55,1.52-5.87a5.32,5.32,0,0,1,8.28,0c1,1.32,1.52,3.28,1.52,5.87a9.84,9.84,0,0,1-1.52,5.93A4.87,4.87,0,0,1,192,27.74Zm0-13.68a2.7,2.7,0,0,0-1.27.3,2.6,2.6,0,0,0-1,1,5.49,5.49,0,0,0-.66,1.76,12.55,12.55,0,0,0-.24,2.65,13,13,0,0,0,.24,2.68,5.92,5.92,0,0,0,.66,1.81,2.8,2.8,0,0,0,1,1,2.66,2.66,0,0,0,2.53,0,2.82,2.82,0,0,0,1-1,5.92,5.92,0,0,0,.66-1.81,13,13,0,0,0,.24-2.68,12.55,12.55,0,0,0-.24-2.65,5.49,5.49,0,0,0-.66-1.76,2.62,2.62,0,0,0-1-1A2.72,2.72,0,0,0,192,14.06Zm0,7.3a1.61,1.61,0,1,1,1.18-.46A1.64,1.64,0,0,1,192,21.36Z"/><path class="cls-2" d="M206.4,27.74a4.87,4.87,0,0,1-4.14-2.06,9.84,9.84,0,0,1-1.52-5.93c0-2.59.5-4.55,1.52-5.87a5.32,5.32,0,0,1,8.28,0c1,1.32,1.52,3.28,1.52,5.87a9.84,9.84,0,0,1-1.52,5.93A4.87,4.87,0,0,1,206.4,27.74Zm0-13.68a2.7,2.7,0,0,0-1.27.3,2.6,2.6,0,0,0-1,1,5.49,5.49,0,0,0-.66,1.76,12.55,12.55,0,0,0-.24,2.65,13,13,0,0,0,.24,2.68,5.92,5.92,0,0,0,.66,1.81,2.8,2.8,0,0,0,1,1,2.66,2.66,0,0,0,2.53,0,2.82,2.82,0,0,0,1-1,5.92,5.92,0,0,0,.66-1.81,13,13,0,0,0,.24-2.68,12.55,12.55,0,0,0-.24-2.65,5.49,5.49,0,0,0-.66-1.76,2.62,2.62,0,0,0-1-1A2.72,2.72,0,0,0,206.4,14.06Zm0,7.3a1.61,1.61,0,1,1,1.18-.46A1.64,1.64,0,0,1,206.4,21.36Z"/><path class="cls-2" d="M220.8,27.74a4.87,4.87,0,0,1-4.14-2.06,9.84,9.84,0,0,1-1.52-5.93c0-2.59.5-4.55,1.52-5.87a5.32,5.32,0,0,1,8.28,0c1,1.32,1.52,3.28,1.52,5.87a9.84,9.84,0,0,1-1.52,5.93A4.87,4.87,0,0,1,220.8,27.74Zm0-13.68a2.7,2.7,0,0,0-1.27.3,2.6,2.6,0,0,0-1,1,5.49,5.49,0,0,0-.66,1.76,12.55,12.55,0,0,0-.24,2.65,13,13,0,0,0,.24,2.68,5.92,5.92,0,0,0,.66,1.81,2.8,2.8,0,0,0,1,1,2.66,2.66,0,0,0,2.53,0,2.82,2.82,0,0,0,1-1,5.92,5.92,0,0,0,.66-1.81,13,13,0,0,0,.24-2.68,12.55,12.55,0,0,0-.24-2.65,5.49,5.49,0,0,0-.66-1.76,2.62,2.62,0,0,0-1-1A2.72,2.72,0,0,0,220.8,14.06Zm0,7.3A1.61,1.61,0,1,1,222,20.9,1.64,1.64,0,0,1,220.8,21.36Z"/><path class="cls-2" d="M235.2,27.74a4.87,4.87,0,0,1-4.14-2.06,9.84,9.84,0,0,1-1.52-5.93c0-2.59.5-4.55,1.52-5.87a5.32,5.32,0,0,1,8.28,0c1,1.32,1.52,3.28,1.52,5.87a9.84,9.84,0,0,1-1.52,5.93A4.87,4.87,0,0,1,235.2,27.74Zm0-13.68a2.7,2.7,0,0,0-1.27.3,2.6,2.6,0,0,0-1,1,5.49,5.49,0,0,0-.66,1.76,12.55,12.55,0,0,0-.24,2.65,13,13,0,0,0,.24,2.68,5.92,5.92,0,0,0,.66,1.81,2.8,2.8,0,0,0,1,1,2.66,2.66,0,0,0,2.53,0,2.82,2.82,0,0,0,1-1,5.92,5.92,0,0,0,.66-1.81,13,13,0,0,0,.24-2.68,12.55,12.55,0,0,0-.24-2.65,5.49,5.49,0,0,0-.66-1.76,2.62,2.62,0,0,0-1-1A2.72,2.72,0,0,0,235.2,14.06Zm0,7.3a1.61,1.61,0,1,1,1.18-.46A1.64,1.64,0,0,1,235.2,21.36Z"/><path class="cls-2" d="M243.94,23.54a3.4,3.4,0,0,1,.25-1.34,3.61,3.61,0,0,1,.68-1.07,5.49,5.49,0,0,1,1-.84,8.88,8.88,0,0,1,1.16-.66v-.09a6.61,6.61,0,0,1-1.62-1.49,3.34,3.34,0,0,1-.66-2.09,3.84,3.84,0,0,1,.37-1.68,3.76,3.76,0,0,1,1-1.27,4.83,4.83,0,0,1,1.56-.82,6.53,6.53,0,0,1,2-.29A5.3,5.3,0,0,1,253.28,13a3.74,3.74,0,0,1,1.31,3,3.17,3.17,0,0,1-.67,2,6.43,6.43,0,0,1-1.61,1.51v.1a10.86,10.86,0,0,1,1.17.67,4.38,4.38,0,0,1,.93.83,3.61,3.61,0,0,1,.63,1.08,4,4,0,0,1,.22,1.4,3.69,3.69,0,0,1-.37,1.65,3.89,3.89,0,0,1-1.09,1.32,5.38,5.38,0,0,1-1.78.87,8.37,8.37,0,0,1-2.4.31,8.25,8.25,0,0,1-2.37-.31,5.52,5.52,0,0,1-1.79-.86,4,4,0,0,1-1.13-1.32A3.71,3.71,0,0,1,243.94,23.54Zm2.44-.28a2.17,2.17,0,0,0,.92,1.83,3.81,3.81,0,0,0,2.37.69,3.56,3.56,0,0,0,2.19-.6,2,2,0,0,0,.79-1.68,1.85,1.85,0,0,0-.33-1.11,2.83,2.83,0,0,0-.88-.79A7.65,7.65,0,0,0,250.1,21c-.51-.19-1.07-.38-1.68-.59A5.71,5.71,0,0,0,247,21.61,2.52,2.52,0,0,0,246.38,23.26Zm4.37-4.42a3.44,3.44,0,0,0,1.51-2.64,2.24,2.24,0,0,0-.67-1.67,2.65,2.65,0,0,0-1.94-.66,2.79,2.79,0,0,0-1.77.54A1.88,1.88,0,0,0,247.2,16a2,2,0,0,0,.26,1,2.44,2.44,0,0,0,.75.75,6,6,0,0,0,1.13.6A13.48,13.48,0,0,0,250.75,18.84Z"/><path class="cls-2" d="M258.34,23.54a3.4,3.4,0,0,1,.25-1.34,3.61,3.61,0,0,1,.68-1.07,5.49,5.49,0,0,1,1-.84,8.88,8.88,0,0,1,1.16-.66v-.09a6.61,6.61,0,0,1-1.62-1.49,3.34,3.34,0,0,1-.66-2.09,3.84,3.84,0,0,1,.37-1.68,3.76,3.76,0,0,1,1-1.27,4.83,4.83,0,0,1,1.56-.82,6.53,6.53,0,0,1,2-.29A5.3,5.3,0,0,1,267.68,13,3.74,3.74,0,0,1,269,16a3.17,3.17,0,0,1-.67,2,6.43,6.43,0,0,1-1.61,1.51v.1a10.86,10.86,0,0,1,1.17.67,4.38,4.38,0,0,1,.93.83,3.61,3.61,0,0,1,.63,1.08,4,4,0,0,1,.22,1.4,3.69,3.69,0,0,1-.37,1.65,3.89,3.89,0,0,1-1.09,1.32,5.38,5.38,0,0,1-1.78.87,8.37,8.37,0,0,1-2.4.31,8.25,8.25,0,0,1-2.37-.31,5.52,5.52,0,0,1-1.79-.86,4,4,0,0,1-1.13-1.32A3.71,3.71,0,0,1,258.34,23.54Zm2.44-.28a2.17,2.17,0,0,0,.92,1.83,3.81,3.81,0,0,0,2.37.69,3.56,3.56,0,0,0,2.19-.6,2,2,0,0,0,.79-1.68,1.85,1.85,0,0,0-.33-1.11,2.83,2.83,0,0,0-.88-.79A7.65,7.65,0,0,0,264.5,21c-.51-.19-1.07-.38-1.68-.59a5.71,5.71,0,0,0-1.46,1.21A2.52,2.52,0,0,0,260.78,23.26Zm4.37-4.42a3.44,3.44,0,0,0,1.51-2.64,2.24,2.24,0,0,0-.67-1.67,2.65,2.65,0,0,0-1.94-.66,2.79,2.79,0,0,0-1.77.54A1.88,1.88,0,0,0,261.6,16a2,2,0,0,0,.26,1,2.44,2.44,0,0,0,.75.75,6,6,0,0,0,1.13.6A13.48,13.48,0,0,0,265.15,18.84Z"/><path class="cls-2" d="M273.7,23.81A7.58,7.58,0,0,0,275.48,25a5.28,5.28,0,0,0,2.27.49,4.19,4.19,0,0,0,2.34-.61,1.94,1.94,0,0,0,.93-1.7,2.16,2.16,0,0,0-.27-1.08,2.09,2.09,0,0,0-.85-.81,4.82,4.82,0,0,0-1.56-.52,13.38,13.38,0,0,0-2.39-.18v-2A10.42,10.42,0,0,0,278,18.4a4.37,4.37,0,0,0,1.4-.51,2,2,0,0,0,1.05-1.76,1.78,1.78,0,0,0-.73-1.5,3.23,3.23,0,0,0-2-.54,4.43,4.43,0,0,0-1.86.39,7.47,7.47,0,0,0-1.62,1l-1.44-1.71a9.47,9.47,0,0,1,2.3-1.39,7,7,0,0,1,2.74-.53,8.19,8.19,0,0,1,2.16.27,4.79,4.79,0,0,1,1.69.78,3.75,3.75,0,0,1,1.11,1.27,3.69,3.69,0,0,1,.39,1.72,3,3,0,0,1-.84,2.16,5.65,5.65,0,0,1-2.25,1.34v.1a7.3,7.3,0,0,1,1.4.51,4.57,4.57,0,0,1,1.15.81,3.56,3.56,0,0,1,.78,1.1,3.27,3.27,0,0,1,.29,1.37,3.71,3.71,0,0,1-.47,1.87,4.36,4.36,0,0,1-1.26,1.38,5.84,5.84,0,0,1-1.85.86,9,9,0,0,1-5.59-.32,6.73,6.73,0,0,1-2.23-1.54Z"/><path class="cls-2" d="M295.37,23.21h-5.23l-1.23,4.25h-2.83l5.09-15.7h3.26l5.09,15.7h-2.95ZM294.74,21l-.55-1.92c-.22-.83-.45-1.68-.69-2.56s-.48-1.76-.7-2.62h-.1c-.22.88-.45,1.76-.68,2.63s-.47,1.72-.71,2.55L290.76,21Z"/><line class="cls-3" x1="191" y1="78.5" x2="191" y2="53.52"/><polygon class="cls-2" points="194.49 54.55 191 48.5 187.51 54.55 194.49 54.55"/><polyline class="cls-3" points="39 16.5 11 16.5 11 179.5 34.98 179.5"/><polygon class="cls-2" points="33.95 182.99 40 179.5 33.95 176.01 33.95 182.99"/><polyline class="cls-3" points="418 16.5 445 16.5 445 179.5 421.02 179.5"/><polygon class="cls-2" points="422.05 176.01 416 179.5 422.05 182.99 422.05 176.01"/><rect class="cls-4" y="86.5" width="23" height="23"/><rect class="cls-4" x="408" y="95.5" width="23" height="23"/><polyline class="cls-3" points="220 121.52 220 127.5 346 127.5 346 121.52"/><polygon class="cls-2" points="216.51 122.55 220 116.5 223.49 122.55 216.51 122.55"/><polygon class="cls-2" points="349.49 122.55 346 116.5 342.51 122.55 349.49 122.55"/><rect class="cls-4" x="234" y="124.29" width="98" height="7.43"/><path class="cls-2" d="M237.19,124h1.69l.18,2h.05a5,5,0,0,1,1.64-1.63,4.06,4.06,0,0,1,2.09-.56,4.84,4.84,0,0,1,.92.08,3.13,3.13,0,0,1,.77.28l-.42,1.72a6.71,6.71,0,0,0-.76-.2,4.79,4.79,0,0,0-.83-.06,3.32,3.32,0,0,0-1.75.51,4.57,4.57,0,0,0-1.51,1.8v4.84h-2.07Z"/><path class="cls-2" d="M246.67,128.43a4.62,4.62,0,0,1,.39-1.93,4.57,4.57,0,0,1,1-1.45,4.35,4.35,0,0,1,1.44-.91,4.54,4.54,0,0,1,1.67-.31,4.45,4.45,0,0,1,1.73.31,3.61,3.61,0,0,1,1.28.86,3.66,3.66,0,0,1,.78,1.31,5,5,0,0,1,.27,1.67,4.86,4.86,0,0,1,0,.56c0,.16,0,.3-.06.41h-6.36a2.64,2.64,0,0,0,.94,1.83,3.09,3.09,0,0,0,2,.64,4.26,4.26,0,0,0,1.26-.18,6.57,6.57,0,0,0,1.2-.53l.69,1.28a6.94,6.94,0,0,1-1.58.73,6,6,0,0,1-1.84.29,5.44,5.44,0,0,1-1.87-.31,4.54,4.54,0,0,1-1.52-.9,4.25,4.25,0,0,1-1-1.44A4.71,4.71,0,0,1,246.67,128.43Zm6.67-.79a2.35,2.35,0,0,0-.54-1.64,2,2,0,0,0-1.58-.58,2.5,2.5,0,0,0-.86.14,2.21,2.21,0,0,0-.74.43,2.73,2.73,0,0,0-.56.69,2.78,2.78,0,0,0-.3,1Z"/><path class="cls-2" d="M266.21,122a5,5,0,0,0-.94-.28,5.06,5.06,0,0,0-1-.09,1.93,1.93,0,0,0-1.47.49,2,2,0,0,0-.45,1.42V124h3.33v1.63h-3.33v7.13h-2v-7.13H257.9v-1.54l2.43-.09v-.48a4.64,4.64,0,0,1,.21-1.42,3,3,0,0,1,.67-1.14,3.17,3.17,0,0,1,1.16-.74A4.86,4.86,0,0,1,264,120a7.59,7.59,0,0,1,1.37.12,6.33,6.33,0,0,1,1.24.36Z"/><path class="cls-2" d="M268.06,128.43a4.62,4.62,0,0,1,.39-1.93,4.57,4.57,0,0,1,1-1.45,4.35,4.35,0,0,1,1.44-.91,4.52,4.52,0,0,1,1.66-.31,4.47,4.47,0,0,1,1.74.31,3.61,3.61,0,0,1,1.28.86,3.66,3.66,0,0,1,.78,1.31,5,5,0,0,1,.27,1.67,4.86,4.86,0,0,1,0,.56c0,.16,0,.3-.06.41h-6.36a2.64,2.64,0,0,0,.94,1.83,3.09,3.09,0,0,0,2,.64,4.26,4.26,0,0,0,1.26-.18,6.89,6.89,0,0,0,1.2-.53l.69,1.28a6.94,6.94,0,0,1-1.58.73,6,6,0,0,1-1.84.29,5.44,5.44,0,0,1-1.87-.31,4.54,4.54,0,0,1-1.52-.9,4.25,4.25,0,0,1-1-1.44A4.71,4.71,0,0,1,268.06,128.43Zm6.67-.79a2.35,2.35,0,0,0-.54-1.64,2,2,0,0,0-1.58-.58,2.5,2.5,0,0,0-.86.14,2.21,2.21,0,0,0-.74.43,2.73,2.73,0,0,0-.56.69,2.78,2.78,0,0,0-.3,1Z"/><path class="cls-2" d="M280,124h1.69l.18,2h.05a5,5,0,0,1,1.64-1.63,4.06,4.06,0,0,1,2.09-.56,4.84,4.84,0,0,1,.92.08,3.13,3.13,0,0,1,.77.28l-.42,1.72a6.71,6.71,0,0,0-.76-.2,4.79,4.79,0,0,0-.83-.06,3.32,3.32,0,0,0-1.75.51A4.57,4.57,0,0,0,282,128v4.84H280Z"/><path class="cls-2" d="M289.45,128.43a4.62,4.62,0,0,1,.39-1.93,4.57,4.57,0,0,1,1-1.45,4.35,4.35,0,0,1,1.44-.91,4.54,4.54,0,0,1,1.67-.31,4.45,4.45,0,0,1,1.73.31A3.61,3.61,0,0,1,297,125a3.66,3.66,0,0,1,.78,1.31A5,5,0,0,1,298,128a4.86,4.86,0,0,1,0,.56c0,.16,0,.3-.06.41h-6.36a2.64,2.64,0,0,0,.94,1.83,3.09,3.09,0,0,0,2,.64,4.26,4.26,0,0,0,1.26-.18,6.57,6.57,0,0,0,1.2-.53l.69,1.28a6.94,6.94,0,0,1-1.58.73,6,6,0,0,1-1.84.29,5.44,5.44,0,0,1-1.87-.31,4.54,4.54,0,0,1-1.52-.9,4.4,4.4,0,0,1-1-1.44A4.71,4.71,0,0,1,289.45,128.43Zm6.67-.79a2.35,2.35,0,0,0-.54-1.64,2,2,0,0,0-1.58-.58,2.5,2.5,0,0,0-.86.14,2.21,2.21,0,0,0-.74.43,2.73,2.73,0,0,0-.56.69,2.78,2.78,0,0,0-.3,1Z"/><path class="cls-2" d="M300.5,124h1.7l.16,1.32h.07a8,8,0,0,1,1.38-1.08,3.43,3.43,0,0,1,1.77-.45,2.65,2.65,0,0,1,2.23.92,4.18,4.18,0,0,1,.72,2.63v5.42h-2.07v-5.16a2.6,2.6,0,0,0-.37-1.56,1.5,1.5,0,0,0-1.27-.49,2.07,2.07,0,0,0-1.14.31,5.89,5.89,0,0,0-1.11.92v6H300.5Z"/><path class="cls-2" d="M311,128.43a4.46,4.46,0,0,1,.4-1.94,4.27,4.27,0,0,1,1.08-1.45,4.77,4.77,0,0,1,1.59-.9,5.74,5.74,0,0,1,1.9-.31,4.72,4.72,0,0,1,3.25,1.23l-1,1.28a4.44,4.44,0,0,0-1-.62,3.14,3.14,0,0,0-3.25.58,2.82,2.82,0,0,0-.82,2.13,3,3,0,0,0,.22,1.19,2.65,2.65,0,0,0,.59.92,2.6,2.6,0,0,0,.92.59,3.51,3.51,0,0,0,2.54-.08,6.05,6.05,0,0,0,1.13-.68l.86,1.32a5.11,5.11,0,0,1-1.68,1,5.54,5.54,0,0,1-1.87.33,5.94,5.94,0,0,1-1.92-.3,4.42,4.42,0,0,1-1.53-.9,4,4,0,0,1-1-1.44A4.8,4.8,0,0,1,311,128.43Z"/><path class="cls-2" d="M321.54,128.43a4.78,4.78,0,0,1,.38-1.93,4.6,4.6,0,0,1,1-1.45,4.21,4.21,0,0,1,1.43-.91,4.84,4.84,0,0,1,3.41,0,3.57,3.57,0,0,1,2.06,2.17,5.27,5.27,0,0,1,.26,1.67c0,.2,0,.39,0,.56a3.14,3.14,0,0,1-.07.41h-6.36a2.65,2.65,0,0,0,.95,1.83,3.07,3.07,0,0,0,2,.64,4.33,4.33,0,0,0,1.27-.18,6.49,6.49,0,0,0,1.19-.53l.7,1.28a7.22,7.22,0,0,1-1.59.73,5.84,5.84,0,0,1-1.83.29,5.53,5.53,0,0,1-1.88-.31,4.49,4.49,0,0,1-1.51-.9,4.28,4.28,0,0,1-1-1.44A4.71,4.71,0,0,1,321.54,128.43Zm6.66-.79a2.35,2.35,0,0,0-.53-1.64,2.06,2.06,0,0,0-1.59-.58,2.45,2.45,0,0,0-.85.14,2.12,2.12,0,0,0-.74.43,2.53,2.53,0,0,0-.56.69,2.58,2.58,0,0,0-.31,1Z"/><path class="cls-5" d="M117,62.62a3.49,3.49,0,0,1,3.49,3.47v2.2a3.49,3.49,0,1,1-7,0V67.08a.37.37,0,0,1,.61-.27,4.15,4.15,0,0,0,1,.7.36.36,0,0,1,.21.33v.43A1.67,1.67,0,0,0,117,69.94a1.65,1.65,0,0,0,1.67-1.65V66.11A1.65,1.65,0,0,0,117,64.45a2.32,2.32,0,0,0-.31,0,.37.37,0,0,1-.32-.09.89.89,0,0,1-.29-.67V63a.37.37,0,0,1,.3-.36,4.32,4.32,0,0,1,.62-.05Z"/><path class="cls-6" d="M117,58a3.49,3.49,0,0,0-3.49,3.49v2.18h0A3.48,3.48,0,0,0,117,67.2a4.18,4.18,0,0,0,.61,0,.37.37,0,0,0,.3-.36V66.1a.89.89,0,0,0-.29-.67.37.37,0,0,0-.32-.09,2.16,2.16,0,0,1-.3,0,1.66,1.66,0,0,1-1.66-1.66V61.53A1.65,1.65,0,0,1,117,59.88a1.67,1.67,0,0,1,1.64,1.67V62a.36.36,0,0,0,.21.33,4.15,4.15,0,0,1,1,.7.37.37,0,0,0,.62-.27V61.53A3.5,3.5,0,0,0,117,58Z"/><line class="cls-7" x1="117" y1="56.77" x2="117" y2="50.52"/><polygon class="cls-5" points="120.49 51.55 117 45.5 113.51 51.55 120.49 51.55"/><line class="cls-8" x1="117" y1="73.23" x2="117" y2="79.48"/><polygon class="cls-6" points="113.51 78.45 117 84.5 120.49 78.45 113.51 78.45"/><path class="cls-5" d="M348,62.62a3.49,3.49,0,0,1,3.49,3.47v2.2a3.49,3.49,0,0,1-7,0V67.08a.37.37,0,0,1,.61-.27,4.15,4.15,0,0,0,1,.7.36.36,0,0,1,.21.33v.43A1.67,1.67,0,0,0,348,69.94a1.65,1.65,0,0,0,1.67-1.65V66.11A1.65,1.65,0,0,0,348,64.45a2.32,2.32,0,0,0-.31,0,.37.37,0,0,1-.32-.09.89.89,0,0,1-.29-.67V63a.37.37,0,0,1,.3-.36,4.32,4.32,0,0,1,.62-.05Z"/><path class="cls-6" d="M348,58a3.49,3.49,0,0,0-3.49,3.49v2.18h0A3.48,3.48,0,0,0,348,67.2a4.18,4.18,0,0,0,.61,0,.37.37,0,0,0,.3-.36V66.1a.89.89,0,0,0-.29-.67.37.37,0,0,0-.32-.09,2.16,2.16,0,0,1-.3,0,1.66,1.66,0,0,1-1.66-1.66V61.53A1.65,1.65,0,0,1,348,59.88a1.67,1.67,0,0,1,1.64,1.67V62a.36.36,0,0,0,.21.33,4.15,4.15,0,0,1,1,.7.37.37,0,0,0,.62-.27V61.53A3.5,3.5,0,0,0,348,58Z"/><line class="cls-7" x1="348" y1="56.77" x2="348" y2="50.52"/><polygon class="cls-5" points="351.49 51.55 348 45.5 344.51 51.55 351.49 51.55"/><line class="cls-8" x1="348" y1="73.23" x2="348" y2="79.48"/><polygon class="cls-6" points="344.51 78.45 348 84.5 351.49 78.45 344.51 78.45"/><path class="cls-9" d="M55,88.13h6.48v12.79a2.08,2.08,0,0,0,.6,1.69,2.28,2.28,0,0,0,1.51.49,5.68,5.68,0,0,0,2-.45l.65,2c-.56.19-1.09.35-1.57.48a7.49,7.49,0,0,1-1.77.19,4,4,0,0,1-3.14-1.2,4.93,4.93,0,0,1-1.06-3.38V90.31H55Z"/><path class="cls-9" d="M69.22,99.19a6.34,6.34,0,0,1,.52-2.59,6.14,6.14,0,0,1,1.36-2A5.81,5.81,0,0,1,73,93.42,6.18,6.18,0,0,1,75.27,93a6.1,6.1,0,0,1,2.34.42,5,5,0,0,1,1.72,1.15,4.8,4.8,0,0,1,1,1.76,6.87,6.87,0,0,1,.36,2.26c0,.27,0,.52,0,.74a3.28,3.28,0,0,1-.09.56H72.06a3.53,3.53,0,0,0,1.27,2.47,4.13,4.13,0,0,0,2.69.86,5.55,5.55,0,0,0,1.7-.25,8.61,8.61,0,0,0,1.61-.71l.93,1.73a9.92,9.92,0,0,1-2.13,1,8.12,8.12,0,0,1-2.47.38,7.4,7.4,0,0,1-2.52-.42,5.94,5.94,0,0,1-2-1.21,5.55,5.55,0,0,1-1.37-1.94A6.25,6.25,0,0,1,69.22,99.19Zm9-1a3.16,3.16,0,0,0-.72-2.21,2.73,2.73,0,0,0-2.14-.79,3.43,3.43,0,0,0-1.15.19,3,3,0,0,0-1,.57,3.53,3.53,0,0,0-.76.94,3.61,3.61,0,0,0-.41,1.3Z"/><path class="cls-9" d="M86.7,95.47H83.55V93.41l3.27-.12.36-3.22h2.28v3.22h5.35v2.18H89.46v4.85a3.21,3.21,0,0,0,.6,2.15,2.72,2.72,0,0,0,2.11.68,6.73,6.73,0,0,0,1.4-.13,7.4,7.4,0,0,0,1.21-.35l.51,2a16.51,16.51,0,0,1-1.74.47,10.41,10.41,0,0,1-2,.2,6.19,6.19,0,0,1-2.26-.36,3.7,3.7,0,0,1-1.48-1,4.1,4.1,0,0,1-.81-1.6,7.81,7.81,0,0,1-.25-2.06Z"/><path class="cls-10" d="M116.43,99l-4-5.66h3L117,95.52c.2.32.4.65.63,1l.67,1h.1c.17-.34.36-.68.57-1s.4-.68.58-1l1.39-2.21h2.9l-4,5.95,4.29,5.83h-3l-1.7-2.33c-.23-.32-.46-.66-.71-1s-.49-.72-.73-1h-.1c-.22.35-.43.7-.63,1l-.64,1.07-1.54,2.3h-2.9Z"/><path class="cls-9" d="M141.61,93.94h10.65v2H141.61Zm0,5.35h10.65v2H141.61Z"/><path class="cls-11" d="M174.39,105.41c0-.43,0-.83,0-1.19s0-.71.08-1l.09-1c0-.35,0-.72,0-1.12a1.68,1.68,0,0,0-.14-.64,1.49,1.49,0,0,0-.53-.57,3.51,3.51,0,0,0-1-.42,7,7,0,0,0-1.67-.17V97.56a7,7,0,0,0,1.67-.17,3.51,3.51,0,0,0,1-.42,1.47,1.47,0,0,0,.53-.56,1.65,1.65,0,0,0,.14-.65,17.69,17.69,0,0,0-.12-2.12,19.11,19.11,0,0,1-.12-2.25,4.14,4.14,0,0,1,.27-1.6,2.18,2.18,0,0,1,.81-1,3.43,3.43,0,0,1,1.39-.54,10.54,10.54,0,0,1,2-.16h1.66v1.51h-1.1a7.32,7.32,0,0,0-1.37.1,1.92,1.92,0,0,0-.83.32,1.16,1.16,0,0,0-.41.6,3.39,3.39,0,0,0-.1.9c0,.67,0,1.35.06,2s.05,1.37.05,2.11a2.87,2.87,0,0,1-.5,1.88,2.8,2.8,0,0,1-1.77.83v.1a2.8,2.8,0,0,1,1.77.83,2.87,2.87,0,0,1,.5,1.88c0,.77,0,1.47-.05,2.11s-.06,1.31-.06,2a3.32,3.32,0,0,0,.1.91,1.22,1.22,0,0,0,.41.59,1.92,1.92,0,0,0,.83.32,8.28,8.28,0,0,0,1.37.1h1.1v1.51h-1.66a10.54,10.54,0,0,1-2-.16,3.43,3.43,0,0,1-1.39-.54,2.16,2.16,0,0,1-.81-1A4.06,4.06,0,0,1,174.39,105.41Z"/><path class="cls-12" d="M184.64,101.9a3.28,3.28,0,0,1,.46-1.74,3.57,3.57,0,0,1,1.44-1.28,9.59,9.59,0,0,1,2.52-.86,23.92,23.92,0,0,1,3.71-.48,2.46,2.46,0,0,0-.71-1.66,2.89,2.89,0,0,0-2.09-.65,5.65,5.65,0,0,0-2,.37,14.73,14.73,0,0,0-1.89.88l-1-1.85a15.84,15.84,0,0,1,2.47-1.13,8.54,8.54,0,0,1,2.9-.5,5.08,5.08,0,0,1,3.77,1.31,5.16,5.16,0,0,1,1.3,3.78v7h-2.26l-.22-1.46H193a10.38,10.38,0,0,1-2.07,1.23,5.57,5.57,0,0,1-2.34.52,4.74,4.74,0,0,1-1.59-.25,3.92,3.92,0,0,1-1.25-.71,3.11,3.11,0,0,1-.81-1.09A3.27,3.27,0,0,1,184.64,101.9Zm2.66-.21a1.24,1.24,0,0,0,.62,1.15,2.87,2.87,0,0,0,1.5.36,3.83,3.83,0,0,0,1.71-.4,8.46,8.46,0,0,0,1.64-1v-2.5a22.52,22.52,0,0,0-2.63.33,6.61,6.61,0,0,0-1.68.51,2.23,2.23,0,0,0-.89.71A1.55,1.55,0,0,0,187.3,101.69Z"/><path class="cls-2" d="M202.16,94.78a2.35,2.35,0,0,1,.67-1.74,2.45,2.45,0,0,1,3.41,0,2.35,2.35,0,0,1,.67,1.74,2.38,2.38,0,0,1-.67,1.74,2.48,2.48,0,0,1-3.41,0A2.38,2.38,0,0,1,202.16,94.78Zm0,8.16a2.35,2.35,0,0,1,.67-1.74,2.45,2.45,0,0,1,3.41,0,2.58,2.58,0,0,1,0,3.47,2.45,2.45,0,0,1-3.41,0A2.34,2.34,0,0,1,202.16,102.94Z"/><path d="M228.63,101.47a9.17,9.17,0,0,0,1.72,1.14,4.8,4.8,0,0,0,2.26.49,3.75,3.75,0,0,0,2.42-.77,2.91,2.91,0,0,0,.07-4.27,3.63,3.63,0,0,0-2.37-.74,4.68,4.68,0,0,0-1.44.2,8.83,8.83,0,0,0-1.39.66l-1.32-.84.48-7.53h9v2.33h-6.6l-.33,3.69a8.47,8.47,0,0,1,1.15-.37,5.28,5.28,0,0,1,1.25-.13,6.8,6.8,0,0,1,2,.29,4.62,4.62,0,0,1,1.66.87A4.12,4.12,0,0,1,238.36,98a5.49,5.49,0,0,1-.06,4.35A4.93,4.93,0,0,1,237,104a5.81,5.81,0,0,1-1.86,1,7,7,0,0,1-2.2.35,7.7,7.7,0,0,1-3.35-.64,8.87,8.87,0,0,1-2.24-1.47Z"/><path class="cls-11" d="M244.09,107.21a8.06,8.06,0,0,0,1.34-.1,2,2,0,0,0,.84-.32,1.12,1.12,0,0,0,.42-.59,3.28,3.28,0,0,0,.11-.91c0-.71,0-1.38-.06-2s-.06-1.34-.06-2.11a2.94,2.94,0,0,1,.49-1.88,2.78,2.78,0,0,1,1.79-.83v-.1a2.78,2.78,0,0,1-1.79-.83,2.94,2.94,0,0,1-.49-1.88c0-.74,0-1.44.06-2.11s.06-1.35.06-2a3.35,3.35,0,0,0-.11-.9,1.07,1.07,0,0,0-.42-.6,2,2,0,0,0-.84-.32,7.11,7.11,0,0,0-1.34-.1H243V88.08h1.66a10.29,10.29,0,0,1,2,.16,3.44,3.44,0,0,1,1.38.54,2.18,2.18,0,0,1,.81,1,4.14,4.14,0,0,1,.27,1.6,19.11,19.11,0,0,1-.12,2.25,17.69,17.69,0,0,0-.12,2.12,1.65,1.65,0,0,0,.14.65,1.4,1.4,0,0,0,.53.56,3.4,3.4,0,0,0,1,.42,7,7,0,0,0,1.67.17v1.68a7,7,0,0,0-1.67.17,3.4,3.4,0,0,0-1,.42,1.42,1.42,0,0,0-.53.57,1.68,1.68,0,0,0-.14.64c0,.4,0,.77,0,1.12l.09,1c0,.34.06.69.08,1s0,.76,0,1.19a4.06,4.06,0,0,1-.27,1.59,2.16,2.16,0,0,1-.81,1,3.44,3.44,0,0,1-1.38.54,10.29,10.29,0,0,1-2,.16H243v-1.51Z"/><path class="cls-9" d="M285,89.93h6.48v12.79a2.08,2.08,0,0,0,.6,1.69,2.28,2.28,0,0,0,1.51.49,5.68,5.68,0,0,0,2-.45l.65,2c-.56.19-1.09.35-1.57.48a7.49,7.49,0,0,1-1.77.19,4,4,0,0,1-3.14-1.2,4.93,4.93,0,0,1-1.06-3.38V92.11H285Z"/><path class="cls-9" d="M299.22,101a6.34,6.34,0,0,1,.52-2.59,6.14,6.14,0,0,1,1.36-2A5.81,5.81,0,0,1,303,95.22a6.18,6.18,0,0,1,2.24-.42,6.1,6.1,0,0,1,2.34.42,5,5,0,0,1,1.72,1.15,4.8,4.8,0,0,1,1.05,1.76,6.87,6.87,0,0,1,.36,2.26c0,.27,0,.52,0,.74a3.28,3.28,0,0,1-.09.56h-8.56a3.53,3.53,0,0,0,1.27,2.47A4.13,4.13,0,0,0,306,105a5.55,5.55,0,0,0,1.7-.25,8.61,8.61,0,0,0,1.61-.71l.93,1.73a9.92,9.92,0,0,1-2.13,1,8.12,8.12,0,0,1-2.47.38,7.4,7.4,0,0,1-2.52-.42,5.94,5.94,0,0,1-2-1.21,5.55,5.55,0,0,1-1.37-1.94A6.28,6.28,0,0,1,299.22,101Zm9-1a3.14,3.14,0,0,0-.72-2.21,2.73,2.73,0,0,0-2.14-.79,3.43,3.43,0,0,0-1.15.19,2.88,2.88,0,0,0-1,.57,3.53,3.53,0,0,0-.76.94,3.61,3.61,0,0,0-.41,1.3Z"/><path class="cls-9" d="M316.7,97.27h-3.15V95.21l3.27-.12.36-3.22h2.28v3.22h5.35v2.18h-5.35v4.85a3.21,3.21,0,0,0,.6,2.15,2.72,2.72,0,0,0,2.11.68,6.73,6.73,0,0,0,1.4-.13,7.4,7.4,0,0,0,1.21-.35l.51,2a16.51,16.51,0,0,1-1.74.47,10.41,10.41,0,0,1-2.05.2,6.19,6.19,0,0,1-2.26-.36,3.7,3.7,0,0,1-1.48-1,4.1,4.1,0,0,1-.81-1.6,7.81,7.81,0,0,1-.25-2.06Z"/><path class="cls-10" d="M343.55,109.44a2.76,2.76,0,0,0,.51,0,2.7,2.7,0,0,0,1.8-.57,3.68,3.68,0,0,0,1-1.45l.29-.74L341.9,95.09h2.76l2.42,5.78c.22.53.44,1.09.65,1.68s.42,1.19.65,1.78h.09c.18-.56.37-1.14.58-1.73s.41-1.17.6-1.73l2.13-5.78h2.62l-4.92,12.31a12.58,12.58,0,0,1-.85,1.8,5.66,5.66,0,0,1-1.09,1.35,4.41,4.41,0,0,1-1.44.87,5.45,5.45,0,0,1-1.88.3,6.62,6.62,0,0,1-.91-.06,4,4,0,0,1-.77-.18l.53-2.16A4.21,4.21,0,0,0,343.55,109.44Z"/><path class="cls-9" d="M371.61,95.74h10.65v2H371.61Zm0,5.35h10.65v2H371.61Z"/><path class="cls-10" d="M404,100.75l-4-5.66h3l1.53,2.23c.2.32.4.65.63,1s.44.68.67,1h.1c.17-.33.36-.67.57-1s.4-.68.58-1l1.39-2.2h2.9l-4,6,4.29,5.83h-3l-1.7-2.33c-.23-.32-.46-.66-.71-1s-.49-.72-.73-1.05h-.1l-.64,1-.63,1.07-1.54,2.3h-2.9Z"/><path class="cls-2" d="M417.47,110.38c2-.82,3.06-2,3.07-3.7a1.52,1.52,0,0,1-.33,0,2.47,2.47,0,0,1-1.59-.54,2.18,2.18,0,0,1,0-3.16,2.42,2.42,0,0,1,1.61-.57,2.19,2.19,0,0,1,1.95,1,4.68,4.68,0,0,1,.65,2.64,5.83,5.83,0,0,1-1.2,3.73,7,7,0,0,1-3.46,2.27Zm.29-13.8a2.39,2.39,0,0,1,.67-1.75,2.48,2.48,0,0,1,3.41,0,2.61,2.61,0,0,1,0,3.49,2.48,2.48,0,0,1-3.41,0A2.38,2.38,0,0,1,417.76,96.58Z"/><path class="cls-10" d="M59.31,138.55l-4-5.66h3l1.53,2.23c.2.32.4.65.63,1l.67,1h.1c.17-.33.36-.67.57-1s.4-.68.58-1l1.39-2.2h2.91l-4,6L67,144.67H64l-1.7-2.33c-.23-.32-.46-.66-.71-1l-.73-1.06h-.1l-.63,1.05-.64,1.07-1.54,2.3H55Z"/><path class="cls-2" d="M73,142.54a2.39,2.39,0,0,1,.67-1.75,2.48,2.48,0,0,1,3.41,0,2.39,2.39,0,0,1,.67,1.75,2.34,2.34,0,0,1-.67,1.73,2.45,2.45,0,0,1-3.41,0A2.34,2.34,0,0,1,73,142.54Z"/><path class="cls-12" d="M84.32,141.5a3.28,3.28,0,0,1,.46-1.74,3.57,3.57,0,0,1,1.44-1.28,9.59,9.59,0,0,1,2.52-.86,25,25,0,0,1,3.72-.49,2.51,2.51,0,0,0-.72-1.65,2.89,2.89,0,0,0-2.09-.65,5.69,5.69,0,0,0-2,.37,14.73,14.73,0,0,0-1.89.88l-1-1.85a16.28,16.28,0,0,1,2.47-1.13,8.58,8.58,0,0,1,2.9-.5,5.08,5.08,0,0,1,3.77,1.31,5.16,5.16,0,0,1,1.3,3.78v7H93l-.22-1.46h-.07a10.11,10.11,0,0,1-2.07,1.23,5.53,5.53,0,0,1-2.34.52,4.74,4.74,0,0,1-1.59-.25,4,4,0,0,1-1.25-.71,3.11,3.11,0,0,1-.81-1.09A3.42,3.42,0,0,1,84.32,141.5Zm2.66-.21a1.24,1.24,0,0,0,.62,1.15,2.87,2.87,0,0,0,1.5.36,3.83,3.83,0,0,0,1.71-.4,8.83,8.83,0,0,0,1.65-1v-2.5a22.45,22.45,0,0,0-2.64.33,6.61,6.61,0,0,0-1.68.51,2.23,2.23,0,0,0-.89.71A1.52,1.52,0,0,0,87,141.29Z"/><path class="cls-9" d="M113.29,133.54h10.65v2H113.29Zm0,5.35h10.65v2H113.29Z"/><path d="M151.42,132.53a4.29,4.29,0,0,0-1.28-.83,3.87,3.87,0,0,0-1.57-.32,4.22,4.22,0,0,0-1.55.28,3.22,3.22,0,0,0-1.3,1,5.25,5.25,0,0,0-.91,1.77,9.92,9.92,0,0,0-.39,2.67,7.21,7.21,0,0,1,1.94-1.35,4.83,4.83,0,0,1,2.06-.5,6.06,6.06,0,0,1,1.9.29,4.16,4.16,0,0,1,1.5.88,4.08,4.08,0,0,1,1,1.47,5.58,5.58,0,0,1,.36,2.09,4.84,4.84,0,0,1-.44,2.08,4.66,4.66,0,0,1-1.16,1.57,5.43,5.43,0,0,1-1.69,1,5.69,5.69,0,0,1-2,.36,6,6,0,0,1-2.29-.45,5.09,5.09,0,0,1-1.92-1.35,6.71,6.71,0,0,1-1.32-2.33,10.07,10.07,0,0,1-.49-3.33,11.92,11.92,0,0,1,.54-3.82,7.24,7.24,0,0,1,1.45-2.59,5.76,5.76,0,0,1,2.08-1.49,6.27,6.27,0,0,1,2.43-.48,6.59,6.59,0,0,1,2.65.5,6.83,6.83,0,0,1,1.91,1.23Zm-3.57,10.32a3.12,3.12,0,0,0,1.07-.19,2.63,2.63,0,0,0,.87-.57,2.49,2.49,0,0,0,.6-.91,3.19,3.19,0,0,0,.22-1.24,2.67,2.67,0,0,0-.73-2,2.94,2.94,0,0,0-2-.67,3.79,3.79,0,0,0-1.63.4,5,5,0,0,0-1.71,1.38,5.08,5.08,0,0,0,1.15,2.94A3,3,0,0,0,147.85,142.85Z"/><path class="cls-2" d="M159.15,148.17c2-.81,3.06-2,3.07-3.69a1.52,1.52,0,0,1-.33,0,2.47,2.47,0,0,1-1.59-.54,1.91,1.91,0,0,1-.67-1.59,1.94,1.94,0,0,1,.69-1.58,2.47,2.47,0,0,1,1.62-.56,2.18,2.18,0,0,1,1.94,1,4.68,4.68,0,0,1,.65,2.64,5.83,5.83,0,0,1-1.2,3.73,7.06,7.06,0,0,1-3.46,2.27Zm.29-13.79a2.39,2.39,0,0,1,.67-1.75,2.48,2.48,0,0,1,3.41,0,2.61,2.61,0,0,1,0,3.49,2.48,2.48,0,0,1-3.41,0A2.38,2.38,0,0,1,159.44,134.38Z"/><path class="cls-11" d="M55,168.53h6.48v12.79a2.08,2.08,0,0,0,.6,1.69,2.28,2.28,0,0,0,1.51.49,5.68,5.68,0,0,0,2-.45l.65,2c-.56.19-1.09.35-1.57.48a7,7,0,0,1-1.77.19,4,4,0,0,1-3.14-1.2,4.93,4.93,0,0,1-1.06-3.38V170.71H55Z"/><path class="cls-11" d="M69,179.59A6.53,6.53,0,0,1,69.5,177,5.87,5.87,0,0,1,70.81,175a5.52,5.52,0,0,1,1.89-1.21,6.16,6.16,0,0,1,4.47,0A5.52,5.52,0,0,1,79.06,175,5.87,5.87,0,0,1,80.37,177a7.22,7.22,0,0,1,0,5.23,5.82,5.82,0,0,1-1.31,1.94,5.35,5.35,0,0,1-1.89,1.2,6.3,6.3,0,0,1-4.47,0,5.35,5.35,0,0,1-1.89-1.2,5.82,5.82,0,0,1-1.31-1.94A6.58,6.58,0,0,1,69,179.59Zm2.85,0a4.61,4.61,0,0,0,.82,2.85,2.93,2.93,0,0,0,4.51,0,5.4,5.4,0,0,0,0-5.72,2.93,2.93,0,0,0-4.51,0A4.66,4.66,0,0,0,71.86,179.59Z"/><path class="cls-11" d="M83.62,187.54a2.23,2.23,0,0,1,.48-1.35,4.06,4.06,0,0,1,1.4-1.13V185a2.71,2.71,0,0,1-.84-.75A2,2,0,0,1,84.3,183a2.12,2.12,0,0,1,.38-1.19,3.91,3.91,0,0,1,1-1v-.1a3.81,3.81,0,0,1-1.07-1.2,3.63,3.63,0,0,1-.44-1.82,4,4,0,0,1,1.45-3.13,4.66,4.66,0,0,1,1.54-.83,5.94,5.94,0,0,1,1.86-.29,5.48,5.48,0,0,1,1.85.29h4.82v2H93a3.7,3.7,0,0,1,.55.87,2.71,2.71,0,0,1,.24,1.14,3.9,3.9,0,0,1-.36,1.73,3.57,3.57,0,0,1-1,1.25,4.42,4.42,0,0,1-1.5.76,7,7,0,0,1-1.85.25,5.77,5.77,0,0,1-1.8-.31,1.28,1.28,0,0,0-.72,1.08c0,.75.74,1.12,2.23,1.12h2.4a7.07,7.07,0,0,1,3.47.68,2.34,2.34,0,0,1,1.16,2.2,3.06,3.06,0,0,1-.48,1.64A4.4,4.4,0,0,1,94,189.47a7.66,7.66,0,0,1-2.14.89,11.63,11.63,0,0,1-2.82.32,11.45,11.45,0,0,1-2.21-.19,5.88,5.88,0,0,1-1.69-.59,3,3,0,0,1-1.09-1A2.48,2.48,0,0,1,83.62,187.54Zm2.31-.36a1.38,1.38,0,0,0,.87,1.24,5.56,5.56,0,0,0,2.54.46,6.86,6.86,0,0,0,1.56-.16,4.69,4.69,0,0,0,1.2-.42,2.17,2.17,0,0,0,.76-.61,1.16,1.16,0,0,0,.27-.73.89.89,0,0,0-.6-.92,5.07,5.07,0,0,0-1.78-.23H88.88c-.38,0-.72,0-1,0a2.84,2.84,0,0,1-.78-.15,2.92,2.92,0,0,0-.89.76A1.44,1.44,0,0,0,85.93,187.18ZM89.05,180a2.26,2.26,0,0,0,1.58-.61,2.23,2.23,0,0,0,.67-1.74,2.26,2.26,0,0,0-.67-1.72,2.23,2.23,0,0,0-1.58-.63,2.19,2.19,0,0,0-1.57.63,2.29,2.29,0,0,0-.66,1.72,2.26,2.26,0,0,0,.66,1.74A2.21,2.21,0,0,0,89.05,180Z"/><path class="cls-11" d="M102.6,185a14.2,14.2,0,0,1,0-12.34,15.06,15.06,0,0,1,3.82-4.75l1.54,1.27a13.68,13.68,0,0,0-3.34,4.39,13.7,13.7,0,0,0,0,10.52,13.68,13.68,0,0,0,3.34,4.39l-1.54,1.27A15.06,15.06,0,0,1,102.6,185Z"/><path class="cls-10" d="M116.43,179.35l-4-5.66h3l1.53,2.23c.2.32.4.65.63,1l.67,1h.1c.17-.34.36-.68.57-1s.4-.68.58-1l1.39-2.21h2.9l-4,5.95,4.29,5.83h-3l-1.7-2.33c-.23-.32-.46-.66-.71-1s-.49-.72-.73-1.05h-.1c-.22.35-.43.7-.63,1l-.64,1.07-1.54,2.3h-2.9Z"/><path class="cls-11" d="M155.31,188.45a13.68,13.68,0,0,0,3.34-4.39,13.7,13.7,0,0,0,0-10.52,13.68,13.68,0,0,0-3.34-4.39l1.54-1.27a15.24,15.24,0,0,1,3.83,4.75,14.3,14.3,0,0,1,0,12.34,15.24,15.24,0,0,1-3.83,4.75Z"/><path class="cls-2" d="M171.27,189c2-.82,3.06-2,3.07-3.7a1.52,1.52,0,0,1-.33,0,2.47,2.47,0,0,1-1.59-.54,1.94,1.94,0,0,1-.67-1.59,1.91,1.91,0,0,1,.69-1.57,2.43,2.43,0,0,1,1.62-.57,2.18,2.18,0,0,1,1.94,1,4.68,4.68,0,0,1,.65,2.64,5.83,5.83,0,0,1-1.2,3.73,7,7,0,0,1-3.46,2.27Zm.29-13.8a2.35,2.35,0,0,1,.67-1.74,2.45,2.45,0,0,1,3.41,0,2.35,2.35,0,0,1,.67,1.74,2.38,2.38,0,0,1-.67,1.74,2.48,2.48,0,0,1-3.41,0A2.38,2.38,0,0,1,171.56,175.18Z"/><path class="cls-11" d="M285,168.53h6.48v12.79a2.08,2.08,0,0,0,.6,1.69,2.28,2.28,0,0,0,1.51.49,5.68,5.68,0,0,0,2-.45l.65,2c-.56.19-1.09.35-1.57.48a7,7,0,0,1-1.77.19,4,4,0,0,1-3.14-1.2,4.93,4.93,0,0,1-1.06-3.38V170.71H285Z"/><path class="cls-11" d="M299,179.59a6.53,6.53,0,0,1,.49-2.61,5.87,5.87,0,0,1,1.31-1.95,5.52,5.52,0,0,1,1.89-1.21,6.16,6.16,0,0,1,4.47,0,5.52,5.52,0,0,1,1.89,1.21,5.87,5.87,0,0,1,1.31,1.95,7.22,7.22,0,0,1,0,5.23,5.82,5.82,0,0,1-1.31,1.94,5.35,5.35,0,0,1-1.89,1.2,6.3,6.3,0,0,1-4.47,0,5.35,5.35,0,0,1-1.89-1.2,5.82,5.82,0,0,1-1.31-1.94A6.58,6.58,0,0,1,299,179.59Zm2.85,0a4.61,4.61,0,0,0,.82,2.85,2.93,2.93,0,0,0,4.51,0,5.4,5.4,0,0,0,0-5.72,2.93,2.93,0,0,0-4.51,0A4.66,4.66,0,0,0,301.86,179.59Z"/><path class="cls-11" d="M313.62,187.54a2.23,2.23,0,0,1,.48-1.35,4.06,4.06,0,0,1,1.4-1.13V185a2.71,2.71,0,0,1-.84-.75,2,2,0,0,1-.36-1.22,2.12,2.12,0,0,1,.38-1.19,3.91,3.91,0,0,1,1-1v-.1a3.81,3.81,0,0,1-1.07-1.2,3.63,3.63,0,0,1-.44-1.82,4,4,0,0,1,1.45-3.13,4.66,4.66,0,0,1,1.54-.83,5.94,5.94,0,0,1,1.86-.29,5.48,5.48,0,0,1,1.85.29h4.82v2H323a3.7,3.7,0,0,1,.55.87,2.71,2.71,0,0,1,.24,1.14,3.9,3.9,0,0,1-.36,1.73,3.57,3.57,0,0,1-1,1.25,4.42,4.42,0,0,1-1.5.76,7,7,0,0,1-1.85.25,5.77,5.77,0,0,1-1.8-.31,1.28,1.28,0,0,0-.72,1.08c0,.75.74,1.12,2.23,1.12h2.4a7.07,7.07,0,0,1,3.47.68,2.34,2.34,0,0,1,1.16,2.2,3.06,3.06,0,0,1-.48,1.64,4.4,4.4,0,0,1-1.35,1.33,7.66,7.66,0,0,1-2.14.89,11.63,11.63,0,0,1-2.82.32,11.45,11.45,0,0,1-2.21-.19,5.88,5.88,0,0,1-1.69-.59,3,3,0,0,1-1.09-1A2.48,2.48,0,0,1,313.62,187.54Zm2.31-.36a1.38,1.38,0,0,0,.87,1.24,5.56,5.56,0,0,0,2.54.46,6.86,6.86,0,0,0,1.56-.16,4.69,4.69,0,0,0,1.2-.42,2.17,2.17,0,0,0,.76-.61,1.16,1.16,0,0,0,.27-.73.89.89,0,0,0-.6-.92,5.07,5.07,0,0,0-1.78-.23h-1.87c-.38,0-.72,0-1,0a2.84,2.84,0,0,1-.78-.15,2.92,2.92,0,0,0-.89.76A1.44,1.44,0,0,0,315.93,187.18Zm3.12-7.18a2.26,2.26,0,0,0,1.58-.61,2.23,2.23,0,0,0,.67-1.74,2.26,2.26,0,0,0-.67-1.72,2.23,2.23,0,0,0-1.58-.63,2.19,2.19,0,0,0-1.57.63,2.29,2.29,0,0,0-.66,1.72,2.26,2.26,0,0,0,.66,1.74A2.21,2.21,0,0,0,319.05,180Z"/><path class="cls-11" d="M332.6,185a14.2,14.2,0,0,1,0-12.34,15.06,15.06,0,0,1,3.82-4.75l1.54,1.27a13.68,13.68,0,0,0-3.34,4.39,13.7,13.7,0,0,0,0,10.52,13.68,13.68,0,0,0,3.34,4.39l-1.54,1.27A15.06,15.06,0,0,1,332.6,185Z"/><path class="cls-10" d="M343.55,188a2.76,2.76,0,0,0,.51.05,2.7,2.7,0,0,0,1.8-.57,3.68,3.68,0,0,0,1-1.45l.29-.74-5.28-11.64h2.76l2.42,5.78c.22.53.44,1.09.65,1.68s.42,1.19.65,1.78h.09c.18-.56.37-1.14.58-1.73s.41-1.17.6-1.73l2.13-5.78h2.62L349.48,186a12.58,12.58,0,0,1-.85,1.8,5.92,5.92,0,0,1-1.09,1.36,4.56,4.56,0,0,1-1.44.86,5.45,5.45,0,0,1-1.88.3,6.62,6.62,0,0,1-.91-.06,4,4,0,0,1-.77-.18l.53-2.16A4.21,4.21,0,0,0,343.55,188Z"/><path class="cls-11" d="M382.31,188.45a13.68,13.68,0,0,0,3.34-4.39,13.7,13.7,0,0,0,0-10.52,13.68,13.68,0,0,0-3.34-4.39l1.54-1.27a15.24,15.24,0,0,1,3.83,4.75,14.3,14.3,0,0,1,0,12.34,15.24,15.24,0,0,1-3.83,4.75Z"/><path class="cls-2" d="M398.27,189c2-.82,3.06-2,3.07-3.7a1.52,1.52,0,0,1-.33,0,2.47,2.47,0,0,1-1.59-.54,1.94,1.94,0,0,1-.67-1.59,1.91,1.91,0,0,1,.69-1.57,2.43,2.43,0,0,1,1.62-.57,2.18,2.18,0,0,1,1.94,1,4.68,4.68,0,0,1,.65,2.64,5.83,5.83,0,0,1-1.2,3.73,7,7,0,0,1-3.46,2.27Zm.29-13.8a2.35,2.35,0,0,1,.67-1.74,2.45,2.45,0,0,1,3.41,0,2.35,2.35,0,0,1,.67,1.74,2.38,2.38,0,0,1-.67,1.74,2.48,2.48,0,0,1-3.41,0A2.38,2.38,0,0,1,398.56,175.18Z"/><path class="cls-2" d="M130,183.05a2.35,2.35,0,0,1,.67-1.74,2.45,2.45,0,0,1,3.41,0,2.35,2.35,0,0,1,.67,1.74,2.38,2.38,0,0,1-.67,1.74,2.48,2.48,0,0,1-3.41,0A2.38,2.38,0,0,1,130,183.05Z"/><path class="cls-12" d="M141.32,182a3.23,3.23,0,0,1,.46-1.74,3.52,3.52,0,0,1,1.44-1.29,9.59,9.59,0,0,1,2.52-.86,23.9,23.9,0,0,1,3.72-.48,2.54,2.54,0,0,0-.72-1.66,2.89,2.89,0,0,0-2.09-.65,5.48,5.48,0,0,0-2,.38,14.67,14.67,0,0,0-1.89.87l-1-1.85a15.36,15.36,0,0,1,2.47-1.12,8.35,8.35,0,0,1,2.9-.51,5.08,5.08,0,0,1,3.77,1.31,5.16,5.16,0,0,1,1.3,3.78v7H150l-.22-1.46h-.07A10.61,10.61,0,0,1,147.6,185a5.67,5.67,0,0,1-2.34.51,4.74,4.74,0,0,1-1.59-.25,3.84,3.84,0,0,1-1.25-.71,3.11,3.11,0,0,1-.81-1.09A3.37,3.37,0,0,1,141.32,182Zm2.66-.22a1.23,1.23,0,0,0,.62,1.15,2.87,2.87,0,0,0,1.5.36,4,4,0,0,0,1.71-.39,9.46,9.46,0,0,0,1.65-1v-2.49a22.71,22.71,0,0,0-2.64.32,6.57,6.57,0,0,0-1.68.52,2.13,2.13,0,0,0-.89.7A1.55,1.55,0,0,0,144,181.8Z"/><path class="cls-2" d="M357,183.05a2.35,2.35,0,0,1,.67-1.74,2.45,2.45,0,0,1,3.41,0,2.35,2.35,0,0,1,.67,1.74,2.38,2.38,0,0,1-.67,1.74,2.48,2.48,0,0,1-3.41,0A2.38,2.38,0,0,1,357,183.05Z"/><path class="cls-12" d="M368.32,182a3.23,3.23,0,0,1,.46-1.74,3.52,3.52,0,0,1,1.44-1.29,9.59,9.59,0,0,1,2.52-.86,23.9,23.9,0,0,1,3.72-.48,2.54,2.54,0,0,0-.72-1.66,2.89,2.89,0,0,0-2.09-.65,5.48,5.48,0,0,0-2,.38,14.67,14.67,0,0,0-1.89.87l-1-1.85a15.36,15.36,0,0,1,2.47-1.12,8.35,8.35,0,0,1,2.9-.51,5.08,5.08,0,0,1,3.77,1.31,5.16,5.16,0,0,1,1.3,3.78v7H377l-.22-1.46h-.07A10.61,10.61,0,0,1,374.6,185a5.67,5.67,0,0,1-2.34.51,4.74,4.74,0,0,1-1.59-.25,3.84,3.84,0,0,1-1.25-.71,3.11,3.11,0,0,1-.81-1.09A3.37,3.37,0,0,1,368.32,182Zm2.66-.22a1.23,1.23,0,0,0,.62,1.15,2.87,2.87,0,0,0,1.5.36,4,4,0,0,0,1.71-.39,9.46,9.46,0,0,0,1.65-1v-2.49a22.71,22.71,0,0,0-2.64.32,6.57,6.57,0,0,0-1.68.52,2.13,2.13,0,0,0-.89.7A1.55,1.55,0,0,0,371,181.8Z"/><path class="cls-2" d="M15.41,93.49a4.29,4.29,0,0,0-1.28-.83,3.9,3.9,0,0,0-1.57-.32,4.22,4.22,0,0,0-1.55.28,3.42,3.42,0,0,0-1.3,1,5.25,5.25,0,0,0-.91,1.77A10.3,10.3,0,0,0,8.4,98a7.26,7.26,0,0,1,1.95-1.35,4.81,4.81,0,0,1,2.06-.49,6.06,6.06,0,0,1,1.9.28,4.34,4.34,0,0,1,1.5.88,4,4,0,0,1,1,1.48,5.49,5.49,0,0,1,.36,2.08,4.84,4.84,0,0,1-.43,2.08,4.69,4.69,0,0,1-1.16,1.57,5.43,5.43,0,0,1-1.69,1,5.73,5.73,0,0,1-2,.36,6.14,6.14,0,0,1-2.29-.44,5.24,5.24,0,0,1-1.92-1.36,6.71,6.71,0,0,1-1.32-2.33,10.07,10.07,0,0,1-.49-3.33,11.92,11.92,0,0,1,.54-3.82,7.24,7.24,0,0,1,1.45-2.59A5.81,5.81,0,0,1,9.9,90.56a6.36,6.36,0,0,1,2.44-.48,6.59,6.59,0,0,1,2.65.5,6.83,6.83,0,0,1,1.91,1.23Zm-3.57,10.32a3,3,0,0,0,1.06-.19,2.67,2.67,0,0,0,.88-.57,2.49,2.49,0,0,0,.6-.91,3.39,3.39,0,0,0,.22-1.24,2.64,2.64,0,0,0-.74-2,2.89,2.89,0,0,0-2-.67,3.86,3.86,0,0,0-1.64.4A5.07,5.07,0,0,0,8.5,100a5.08,5.08,0,0,0,1.15,2.94A3,3,0,0,0,11.84,103.81Z"/><rect class="cls-4" x="434" y="86.5" width="23" height="23"/><path class="cls-2" d="M449.41,93.49a4.29,4.29,0,0,0-1.28-.83,3.9,3.9,0,0,0-1.57-.32,4.22,4.22,0,0,0-1.55.28,3.42,3.42,0,0,0-1.3,1,5.25,5.25,0,0,0-.91,1.77,10.3,10.3,0,0,0-.4,2.67,7.26,7.26,0,0,1,2-1.35,4.81,4.81,0,0,1,2.06-.49,6.06,6.06,0,0,1,1.9.28,4.34,4.34,0,0,1,1.5.88,4,4,0,0,1,1,1.48,5.49,5.49,0,0,1,.36,2.08,4.84,4.84,0,0,1-.43,2.08,4.69,4.69,0,0,1-1.16,1.57,5.43,5.43,0,0,1-1.69,1,5.73,5.73,0,0,1-2,.36,6.14,6.14,0,0,1-2.29-.44,5.24,5.24,0,0,1-1.92-1.36,6.71,6.71,0,0,1-1.32-2.33,10.07,10.07,0,0,1-.49-3.33,11.92,11.92,0,0,1,.54-3.82,7.24,7.24,0,0,1,1.45-2.59,5.81,5.81,0,0,1,2.07-1.49,6.36,6.36,0,0,1,2.44-.48,6.59,6.59,0,0,1,2.65.5,6.83,6.83,0,0,1,1.91,1.23Zm-3.57,10.32a3,3,0,0,0,1.06-.19,2.67,2.67,0,0,0,.88-.57,2.49,2.49,0,0,0,.6-.91,3.39,3.39,0,0,0,.22-1.24,2.64,2.64,0,0,0-.74-2,2.89,2.89,0,0,0-2-.67,3.86,3.86,0,0,0-1.64.4,5.07,5.07,0,0,0-1.7,1.38,5.08,5.08,0,0,0,1.15,2.94A3,3,0,0,0,445.84,103.81Z"/></g></g></svg>