<svg xmlns="http://www.w3.org/2000/svg" viewBox="0 0 427 195.63"><defs><style>.cls-1{fill:#29abe2;}.cls-2{fill:#f0f;}.cls-3{fill:#999;}.cls-4{fill:#fbb03b;}.cls-10,.cls-11,.cls-5,.cls-6{fill:none;stroke-miterlimit:10;}.cls-5,.cls-6{stroke:#999;}.cls-10,.cls-11,.cls-6{stroke-width:2px;}.cls-7{fill:#fff;}.cls-8{fill:gray;}.cls-9{fill:#b3b3b3;}.cls-10{stroke:gray;}.cls-11{stroke:#b3b3b3;}</style></defs><title>by-value</title><g id="Layer_2" data-name="Layer 2"><g id="Layer_1-2" data-name="Layer 1"><path class="cls-1" d="M49.66,81.87h6.48v12.8a2.08,2.08,0,0,0,.6,1.69,2.28,2.28,0,0,0,1.51.49,5.5,5.5,0,0,0,2-.46l.64,2a16,16,0,0,1-1.57.48,6.88,6.88,0,0,1-1.76.2,4,4,0,0,1-3.15-1.2,5,5,0,0,1-1-3.39V84.06H49.66Z"/><path class="cls-1" d="M63.84,92.94a6.24,6.24,0,0,1,1.87-4.55,5.69,5.69,0,0,1,1.94-1.22,6.45,6.45,0,0,1,4.58,0A5,5,0,0,1,74,88.32a4.86,4.86,0,0,1,1,1.76,6.82,6.82,0,0,1,.36,2.26c0,.27,0,.52,0,.74s-.06.41-.09.55H66.67A3.58,3.58,0,0,0,68,96.11a4.18,4.18,0,0,0,2.68.86,5.57,5.57,0,0,0,1.71-.25A9.32,9.32,0,0,0,74,96l.93,1.73a9.44,9.44,0,0,1-2.13,1,7.85,7.85,0,0,1-2.48.39,7.49,7.49,0,0,1-2.52-.42,6,6,0,0,1-2-1.22,5.62,5.62,0,0,1-1.36-1.93A6.32,6.32,0,0,1,63.84,92.94Zm9-1.06a3.18,3.18,0,0,0-.72-2.21A2.77,2.77,0,0,0,70,88.88a3.7,3.7,0,0,0-1.15.19,3,3,0,0,0-1,.58,3.7,3.7,0,0,0-.75.94,3.38,3.38,0,0,0-.41,1.29Z"/><path class="cls-1" d="M81.31,89.22H78.17V87.15L81.43,87l.36-3.21h2.28V87h5.36v2.19H84.07v4.85a3.18,3.18,0,0,0,.6,2.14,2.71,2.71,0,0,0,2.12.69,7.49,7.49,0,0,0,1.4-.13,9,9,0,0,0,1.21-.35l.51,2a13.6,13.6,0,0,1-1.74.47,9.79,9.79,0,0,1-2.06.21,6.17,6.17,0,0,1-2.25-.36,3.7,3.7,0,0,1-1.48-1,4,4,0,0,1-.81-1.6,7.79,7.79,0,0,1-.26-2.06Z"/><path class="cls-2" d="M111.05,92.7l-4-5.67h3l1.53,2.24q.29.48.63,1c.22.35.44.69.67,1H113c.18-.33.37-.68.58-1s.4-.69.58-1L115.54,87h2.9l-4,6,4.3,5.83h-3L114,96.49c-.23-.32-.46-.66-.71-1l-.73-1.06h-.1c-.22.35-.44.7-.64,1s-.41.7-.63,1.06l-1.54,2.31h-2.9Z"/><path class="cls-1" d="M136.23,87.68h10.65v2H136.23Zm0,5.35h10.65v2H136.23Z"/><path d="M165.65,95.22a9.43,9.43,0,0,0,1.71,1.14,4.87,4.87,0,0,0,2.27.49,3.76,3.76,0,0,0,2.41-.77,2.9,2.9,0,0,0,.08-4.27,3.58,3.58,0,0,0-2.37-.74,4.39,4.39,0,0,0-1.44.2,8.83,8.83,0,0,0-1.39.66l-1.32-.84.48-7.54h9v2.33h-6.6l-.33,3.7a7,7,0,0,1,1.15-.37,5.16,5.16,0,0,1,1.24-.14,7.13,7.13,0,0,1,2,.29,4.68,4.68,0,0,1,1.67.88,4.24,4.24,0,0,1,1.13,1.49,5,5,0,0,1,.42,2.12,5,5,0,0,1-.48,2.23,4.83,4.83,0,0,1-1.3,1.66,5.66,5.66,0,0,1-1.85,1,7,7,0,0,1-2.2.35,7.81,7.81,0,0,1-3.35-.64A8.72,8.72,0,0,1,164.38,97Z"/><path class="cls-3" d="M182.09,102.32c2-.81,3-2,3.07-3.69l-.34,0a2.46,2.46,0,0,1-1.58-.54,1.92,1.92,0,0,1-.67-1.6,1.94,1.94,0,0,1,.68-1.57,2.51,2.51,0,0,1,1.62-.56,2.2,2.2,0,0,1,1.95,1,4.69,4.69,0,0,1,.64,2.64,5.85,5.85,0,0,1-1.2,3.73,7.07,7.07,0,0,1-3.45,2.27Zm.29-13.8a2.38,2.38,0,0,1,.67-1.74,2.48,2.48,0,0,1,3.41,0,2.42,2.42,0,0,1,.67,1.74,2.39,2.39,0,0,1-.67,1.74,2.45,2.45,0,0,1-3.41,0A2.35,2.35,0,0,1,182.38,88.52Z"/><path class="cls-1" d="M232.66,81.87h6.48v12.8a2.08,2.08,0,0,0,.6,1.69,2.28,2.28,0,0,0,1.51.49,5.5,5.5,0,0,0,2-.46l.64,2a16,16,0,0,1-1.57.48,6.88,6.88,0,0,1-1.76.2,4,4,0,0,1-3.15-1.2,5,5,0,0,1-1.05-3.39V84.06h-3.72Z"/><path class="cls-1" d="M246.84,92.94a6.24,6.24,0,0,1,1.87-4.55,5.69,5.69,0,0,1,1.94-1.22,6.45,6.45,0,0,1,4.58,0A5,5,0,0,1,257,88.32,4.86,4.86,0,0,1,258,90.08a6.82,6.82,0,0,1,.36,2.26c0,.27,0,.52,0,.74s-.06.41-.09.55h-8.57A3.58,3.58,0,0,0,251,96.11a4.18,4.18,0,0,0,2.68.86,5.57,5.57,0,0,0,1.71-.25A9.32,9.32,0,0,0,257,96l.93,1.73a9.44,9.44,0,0,1-2.13,1,7.85,7.85,0,0,1-2.48.39,7.49,7.49,0,0,1-2.52-.42,6,6,0,0,1-2-1.22,5.62,5.62,0,0,1-1.36-1.93A6.32,6.32,0,0,1,246.84,92.94Zm9-1.06a3.18,3.18,0,0,0-.72-2.21,2.77,2.77,0,0,0-2.14-.79,3.7,3.7,0,0,0-1.15.19,3,3,0,0,0-1,.58,3.7,3.7,0,0,0-.75.94,3.43,3.43,0,0,0-.41,1.29Z"/><path class="cls-1" d="M264.31,89.22h-3.14V87.15l3.26-.12.36-3.21h2.28V87h5.36v2.19h-5.36v4.85a3.18,3.18,0,0,0,.6,2.14,2.71,2.71,0,0,0,2.12.69,7.49,7.49,0,0,0,1.4-.13,9,9,0,0,0,1.21-.35l.51,2a13.6,13.6,0,0,1-1.74.47,9.79,9.79,0,0,1-2.06.21,6.17,6.17,0,0,1-2.25-.36,3.7,3.7,0,0,1-1.48-1,4,4,0,0,1-.81-1.6,7.79,7.79,0,0,1-.26-2.06Z"/><path class="cls-2" d="M291.17,101.39a2.74,2.74,0,0,0,.5,0,2.66,2.66,0,0,0,1.8-.56,3.68,3.68,0,0,0,1-1.45l.28-.75L289.51,87h2.76l2.43,5.79c.22.53.44,1.09.65,1.68s.42,1.18.64,1.77h.1c.18-.56.37-1.13.58-1.72s.4-1.17.6-1.73L299.4,87H302L297.1,99.35a12.58,12.58,0,0,1-.85,1.8,5.9,5.9,0,0,1-1.1,1.35,4.21,4.21,0,0,1-1.44.87,5.35,5.35,0,0,1-1.87.3,6.62,6.62,0,0,1-.91-.06,4,4,0,0,1-.77-.18l.53-2.16Z"/><path class="cls-1" d="M319.23,87.68h10.65v2H319.23Zm0,5.35h10.65v2H319.23Z"/><path class="cls-2" d="M351.65,92.7l-4-5.67h3l1.53,2.24c.19.32.4.65.62,1s.45.69.68,1h.09c.18-.33.37-.68.58-1s.4-.69.57-1l1.4-2.21H359l-4,6,4.3,5.83h-3l-1.71-2.33c-.22-.32-.46-.66-.7-1l-.73-1.06h-.1c-.23.35-.44.7-.64,1s-.41.7-.63,1.06l-1.54,2.31h-2.9Z"/><path class="cls-3" d="M365.09,102.32c2-.81,3.05-2,3.07-3.69l-.34,0a2.46,2.46,0,0,1-1.58-.54,1.92,1.92,0,0,1-.67-1.6,1.94,1.94,0,0,1,.68-1.57,2.51,2.51,0,0,1,1.62-.56,2.2,2.2,0,0,1,1.95,1,4.69,4.69,0,0,1,.64,2.64,5.85,5.85,0,0,1-1.2,3.73,7.07,7.07,0,0,1-3.45,2.27Zm.29-13.8a2.38,2.38,0,0,1,.67-1.74,2.48,2.48,0,0,1,3.41,0,2.42,2.42,0,0,1,.67,1.74,2.39,2.39,0,0,1-.67,1.74,2.45,2.45,0,0,1-3.41,0A2.35,2.35,0,0,1,365.38,88.52Z"/><path class="cls-4" d="M49.66,173.47h6.48v12.8a2.08,2.08,0,0,0,.6,1.69,2.28,2.28,0,0,0,1.51.49,5.5,5.5,0,0,0,2-.46l.64,2a16,16,0,0,1-1.57.48,6.88,6.88,0,0,1-1.76.2,4,4,0,0,1-3.15-1.2,5,5,0,0,1-1-3.39V175.66H49.66Z"/><path class="cls-4" d="M63.63,184.54a6.58,6.58,0,0,1,.49-2.62A5.82,5.82,0,0,1,65.43,180a5.52,5.52,0,0,1,1.89-1.21,6.16,6.16,0,0,1,4.47,0A5.52,5.52,0,0,1,73.68,180,5.82,5.82,0,0,1,75,181.92a7.22,7.22,0,0,1,0,5.23,5.87,5.87,0,0,1-1.31,1.95,5.35,5.35,0,0,1-1.89,1.2,6.3,6.3,0,0,1-4.47,0,5.35,5.35,0,0,1-1.89-1.2,5.87,5.87,0,0,1-1.31-1.95A6.53,6.53,0,0,1,63.63,184.54Zm2.85,0a4.52,4.52,0,0,0,.82,2.84,2.91,2.91,0,0,0,4.51,0,4.58,4.58,0,0,0,.82-2.84,4.64,4.64,0,0,0-.82-2.87,2.91,2.91,0,0,0-4.51,0A4.57,4.57,0,0,0,66.48,184.54Z"/><path class="cls-4" d="M78.24,192.48a2.22,2.22,0,0,1,.48-1.34A4.12,4.12,0,0,1,80.11,190v-.1a2.55,2.55,0,0,1-.84-.74,2,2,0,0,1-.36-1.22,2.13,2.13,0,0,1,.39-1.19,3.94,3.94,0,0,1,1-1v-.09a3.69,3.69,0,0,1-1.07-1.2,3.65,3.65,0,0,1-.44-1.83,4,4,0,0,1,.39-1.8,4.19,4.19,0,0,1,1.06-1.33,4.85,4.85,0,0,1,1.54-.83,5.94,5.94,0,0,1,1.86-.28,5.39,5.39,0,0,1,1.84.28h4.83v2H87.58a3.77,3.77,0,0,1,.55.88,2.64,2.64,0,0,1,.24,1.14,3.93,3.93,0,0,1-.36,1.73,3.57,3.57,0,0,1-1,1.25,4.4,4.4,0,0,1-1.5.75,6.44,6.44,0,0,1-1.84.25,5.41,5.41,0,0,1-1.8-.31,1.31,1.31,0,0,0-.72,1.08c0,.75.74,1.13,2.23,1.13h2.4a7.11,7.11,0,0,1,3.47.67,2.37,2.37,0,0,1,1.16,2.21,3,3,0,0,1-.48,1.63,4.22,4.22,0,0,1-1.36,1.33,6.94,6.94,0,0,1-2.13.89,11.14,11.14,0,0,1-2.82.33,11.41,11.41,0,0,1-2.21-.2,5.5,5.5,0,0,1-1.69-.58,3.09,3.09,0,0,1-1.09-1A2.43,2.43,0,0,1,78.24,192.48Zm2.31-.36a1.38,1.38,0,0,0,.87,1.25,5.68,5.68,0,0,0,2.53.46,7.34,7.34,0,0,0,1.56-.16,4.43,4.43,0,0,0,1.2-.42,2.24,2.24,0,0,0,.77-.61,1.18,1.18,0,0,0,.27-.73.9.9,0,0,0-.6-.93,5.36,5.36,0,0,0-1.78-.23H83.5q-.59,0-1,0a3.25,3.25,0,0,1-.78-.16,2.93,2.93,0,0,0-.89.77A1.35,1.35,0,0,0,80.55,192.12ZM83.67,185a2.28,2.28,0,0,0,1.58-.62,2.34,2.34,0,1,0-3.16-3.45A2.35,2.35,0,0,0,83.67,185Z"/><path class="cls-4" d="M97.21,189.91a14.27,14.27,0,0,1,0-12.33,15.12,15.12,0,0,1,3.83-4.75l1.54,1.27a13.57,13.57,0,0,0-3.34,4.39,13.68,13.68,0,0,0,0,10.51,13.57,13.57,0,0,0,3.34,4.39L101,194.67A15.27,15.27,0,0,1,97.21,189.91Z"/><path class="cls-2" d="M111.05,184.3l-4-5.67h3l1.53,2.24q.29.48.63,1c.22.35.44.69.67,1H113c.18-.33.37-.68.58-1s.4-.69.58-1l1.39-2.21h2.9l-4,6,4.3,5.83h-3l-1.7-2.33c-.23-.32-.46-.66-.71-1l-.73-1.06h-.1c-.22.35-.44.7-.64,1.05s-.41.7-.63,1.06l-1.54,2.31h-2.9Z"/><path class="cls-4" d="M122.93,193.39a13.57,13.57,0,0,0,3.34-4.39,13.68,13.68,0,0,0,0-10.51,13.57,13.57,0,0,0-3.34-4.39l1.54-1.27a15,15,0,0,1,3.82,4.75,14.18,14.18,0,0,1,0,12.33,15.1,15.1,0,0,1-3.82,4.76Z"/><path class="cls-3" d="M138.89,193.92c2-.81,3.06-2,3.07-3.69l-.33,0a2.47,2.47,0,0,1-1.59-.54,1.92,1.92,0,0,1-.67-1.6,1.94,1.94,0,0,1,.68-1.57,2.51,2.51,0,0,1,1.62-.56,2.19,2.19,0,0,1,2,1,4.68,4.68,0,0,1,.65,2.64,5.85,5.85,0,0,1-1.2,3.73,7.11,7.11,0,0,1-3.46,2.27Zm.29-13.8a2.38,2.38,0,0,1,.67-1.74,2.48,2.48,0,0,1,3.41,0,2.38,2.38,0,0,1,.67,1.74,2.35,2.35,0,0,1-.67,1.74,2.45,2.45,0,0,1-3.41,0A2.35,2.35,0,0,1,139.18,180.12Z"/><path class="cls-4" d="M232.66,173.47h6.48v12.8a2.08,2.08,0,0,0,.6,1.69,2.28,2.28,0,0,0,1.51.49,5.5,5.5,0,0,0,2-.46l.64,2a16,16,0,0,1-1.57.48,6.88,6.88,0,0,1-1.76.2,4,4,0,0,1-3.15-1.2,5,5,0,0,1-1.05-3.39V175.66h-3.72Z"/><path class="cls-4" d="M246.63,184.54a6.58,6.58,0,0,1,.49-2.62,5.82,5.82,0,0,1,1.31-1.94,5.52,5.52,0,0,1,1.89-1.21,6.16,6.16,0,0,1,4.47,0,5.52,5.52,0,0,1,1.89,1.21,5.82,5.82,0,0,1,1.31,1.94,7.22,7.22,0,0,1,0,5.23,5.87,5.87,0,0,1-1.31,1.95,5.35,5.35,0,0,1-1.89,1.2,6.3,6.3,0,0,1-4.47,0,5.35,5.35,0,0,1-1.89-1.2,5.87,5.87,0,0,1-1.31-1.95A6.53,6.53,0,0,1,246.63,184.54Zm2.85,0a4.52,4.52,0,0,0,.82,2.84,2.91,2.91,0,0,0,4.51,0,4.58,4.58,0,0,0,.82-2.84,4.64,4.64,0,0,0-.82-2.87,2.91,2.91,0,0,0-4.51,0A4.57,4.57,0,0,0,249.48,184.54Z"/><path class="cls-4" d="M261.24,192.48a2.22,2.22,0,0,1,.48-1.34,4.12,4.12,0,0,1,1.39-1.13v-.1a2.55,2.55,0,0,1-.84-.74,2,2,0,0,1-.36-1.22,2.13,2.13,0,0,1,.39-1.19,3.94,3.94,0,0,1,1-1v-.09a3.69,3.69,0,0,1-1.07-1.2,3.65,3.65,0,0,1-.44-1.83,4,4,0,0,1,.39-1.8,4.19,4.19,0,0,1,1.06-1.33,4.85,4.85,0,0,1,1.54-.83,5.94,5.94,0,0,1,1.86-.28,5.39,5.39,0,0,1,1.84.28h4.83v2h-2.76a3.77,3.77,0,0,1,.55.88,2.64,2.64,0,0,1,.24,1.14,3.93,3.93,0,0,1-.36,1.73,3.57,3.57,0,0,1-1,1.25,4.4,4.4,0,0,1-1.5.75,6.44,6.44,0,0,1-1.84.25,5.41,5.41,0,0,1-1.8-.31,1.31,1.31,0,0,0-.72,1.08c0,.75.74,1.13,2.23,1.13h2.4a7.11,7.11,0,0,1,3.47.67,2.37,2.37,0,0,1,1.16,2.21,3,3,0,0,1-.48,1.63,4.22,4.22,0,0,1-1.36,1.33,6.94,6.94,0,0,1-2.13.89,11.14,11.14,0,0,1-2.82.33,11.41,11.41,0,0,1-2.21-.2,5.5,5.5,0,0,1-1.69-.58,3.09,3.09,0,0,1-1.09-1A2.43,2.43,0,0,1,261.24,192.48Zm2.31-.36a1.38,1.38,0,0,0,.87,1.25,5.68,5.68,0,0,0,2.53.46,7.34,7.34,0,0,0,1.56-.16,4.43,4.43,0,0,0,1.2-.42,2.24,2.24,0,0,0,.77-.61,1.18,1.18,0,0,0,.27-.73.9.9,0,0,0-.6-.93,5.36,5.36,0,0,0-1.78-.23H266.5q-.58,0-1,0a3.25,3.25,0,0,1-.78-.16,2.93,2.93,0,0,0-.89.77A1.35,1.35,0,0,0,263.55,192.12Zm3.12-7.17a2.28,2.28,0,0,0,1.58-.62,2.34,2.34,0,1,0-3.16-3.45,2.35,2.35,0,0,0,1.58,4.07Z"/><path class="cls-4" d="M280.21,189.91a14.27,14.27,0,0,1,0-12.33,15.12,15.12,0,0,1,3.83-4.75l1.54,1.27a13.57,13.57,0,0,0-3.34,4.39,13.68,13.68,0,0,0,0,10.51,13.57,13.57,0,0,0,3.34,4.39L284,194.67A15.27,15.27,0,0,1,280.21,189.91Z"/><path class="cls-2" d="M291.17,193a2.74,2.74,0,0,0,.5,0,2.66,2.66,0,0,0,1.8-.56,3.68,3.68,0,0,0,1-1.45l.28-.75-5.28-11.64h2.76l2.43,5.79c.22.53.44,1.09.65,1.68s.42,1.18.64,1.77h.1c.18-.56.37-1.13.58-1.72s.4-1.17.6-1.73l2.13-5.79H302L297.1,191a12.58,12.58,0,0,1-.85,1.8,5.9,5.9,0,0,1-1.1,1.35,4.21,4.21,0,0,1-1.44.87,5.35,5.35,0,0,1-1.87.3,6.62,6.62,0,0,1-.91-.06,4,4,0,0,1-.77-.18l.53-2.16Z"/><path class="cls-4" d="M305.93,193.39a13.57,13.57,0,0,0,3.34-4.39,13.68,13.68,0,0,0,0-10.51,13.57,13.57,0,0,0-3.34-4.39l1.54-1.27a15,15,0,0,1,3.82,4.75,14.18,14.18,0,0,1,0,12.33,15.1,15.1,0,0,1-3.82,4.76Z"/><path class="cls-3" d="M321.89,193.92c2-.81,3.06-2,3.07-3.69l-.33,0a2.47,2.47,0,0,1-1.59-.54,1.92,1.92,0,0,1-.67-1.6,1.94,1.94,0,0,1,.68-1.57,2.51,2.51,0,0,1,1.62-.56,2.19,2.19,0,0,1,1.95,1,4.68,4.68,0,0,1,.65,2.64,5.85,5.85,0,0,1-1.2,3.73,7.11,7.11,0,0,1-3.46,2.27Zm.29-13.8a2.38,2.38,0,0,1,.67-1.74,2.48,2.48,0,0,1,3.41,0,2.38,2.38,0,0,1,.67,1.74,2.35,2.35,0,0,1-.67,1.74,2.45,2.45,0,0,1-3.41,0A2.35,2.35,0,0,1,322.18,180.12Z"/><rect class="cls-5" x="32" y="0.5" width="173" height="41"/><path class="cls-3" d="M53.7,27.74a4.87,4.87,0,0,1-4.14-2.06A9.84,9.84,0,0,1,48,19.75c0-2.59.5-4.55,1.52-5.87a5.32,5.32,0,0,1,8.28,0,9.5,9.5,0,0,1,1.53,5.87,9.84,9.84,0,0,1-1.53,5.93A4.85,4.85,0,0,1,53.7,27.74Zm0-13.68a2.7,2.7,0,0,0-1.27.3,2.6,2.6,0,0,0-1,1,5.49,5.49,0,0,0-.66,1.76,12.55,12.55,0,0,0-.24,2.65,13,13,0,0,0,.24,2.68,5.92,5.92,0,0,0,.66,1.81,2.8,2.8,0,0,0,1,1,2.66,2.66,0,0,0,2.53,0,2.82,2.82,0,0,0,1-1,5.92,5.92,0,0,0,.66-1.81,13,13,0,0,0,.24-2.68,12.55,12.55,0,0,0-.24-2.65A5.49,5.49,0,0,0,56,15.34a2.62,2.62,0,0,0-1-1A2.72,2.72,0,0,0,53.7,14.06Zm0,7.3a1.6,1.6,0,0,1-1.17-.46,1.83,1.83,0,0,1,0-2.49A1.6,1.6,0,0,1,53.7,18a1.71,1.71,0,1,1,0,3.41Z"/><path class="cls-3" d="M66.4,21.34l-4-5.67h3L67,17.9c.19.32.4.66.62,1l.68,1h.09c.18-.34.37-.68.58-1s.4-.69.57-1l1.39-2.21h2.91l-4,6,4.3,5.84h-3l-1.71-2.33-.7-1c-.25-.37-.5-.72-.74-1.06h-.09c-.23.35-.44.7-.64,1s-.41.7-.63,1.07L65,27.46H62.12Z"/><path class="cls-3" d="M82.5,27.74a4.87,4.87,0,0,1-4.14-2.06,9.84,9.84,0,0,1-1.52-5.93c0-2.59.5-4.55,1.52-5.87a5.32,5.32,0,0,1,8.28,0c1,1.32,1.52,3.28,1.52,5.87a9.84,9.84,0,0,1-1.52,5.93A4.87,4.87,0,0,1,82.5,27.74Zm0-13.68a2.7,2.7,0,0,0-1.27.3,2.6,2.6,0,0,0-1,1,5.49,5.49,0,0,0-.66,1.76,12.55,12.55,0,0,0-.24,2.65,13,13,0,0,0,.24,2.68,5.92,5.92,0,0,0,.66,1.81,2.8,2.8,0,0,0,1,1,2.66,2.66,0,0,0,2.53,0,2.82,2.82,0,0,0,1-1,5.92,5.92,0,0,0,.66-1.81,13,13,0,0,0,.24-2.68,12.55,12.55,0,0,0-.24-2.65,5.49,5.49,0,0,0-.66-1.76,2.62,2.62,0,0,0-1-1A2.72,2.72,0,0,0,82.5,14.06Zm0,7.3a1.61,1.61,0,1,1,1.18-.46A1.64,1.64,0,0,1,82.5,21.36Z"/><path class="cls-3" d="M96.9,27.74a4.87,4.87,0,0,1-4.14-2.06,9.84,9.84,0,0,1-1.52-5.93c0-2.59.5-4.55,1.52-5.87a5.32,5.32,0,0,1,8.28,0c1,1.32,1.52,3.28,1.52,5.87A9.84,9.84,0,0,1,101,25.68,4.87,4.87,0,0,1,96.9,27.74Zm0-13.68a2.7,2.7,0,0,0-1.27.3,2.6,2.6,0,0,0-1,1A5.49,5.49,0,0,0,94,17.1a12.55,12.55,0,0,0-.24,2.65A13,13,0,0,0,94,22.43a5.92,5.92,0,0,0,.66,1.81,2.8,2.8,0,0,0,1,1,2.66,2.66,0,0,0,2.53,0,2.82,2.82,0,0,0,1-1,5.92,5.92,0,0,0,.66-1.81,13,13,0,0,0,.24-2.68,12.55,12.55,0,0,0-.24-2.65,5.49,5.49,0,0,0-.66-1.76,2.62,2.62,0,0,0-1-1A2.72,2.72,0,0,0,96.9,14.06Zm0,7.3a1.61,1.61,0,1,1,1.18-.46A1.64,1.64,0,0,1,96.9,21.36Z"/><path class="cls-3" d="M111.3,27.74a4.87,4.87,0,0,1-4.14-2.06,9.84,9.84,0,0,1-1.52-5.93c0-2.59.5-4.55,1.52-5.87a5.32,5.32,0,0,1,8.28,0c1,1.32,1.52,3.28,1.52,5.87a9.84,9.84,0,0,1-1.52,5.93A4.87,4.87,0,0,1,111.3,27.74Zm0-13.68a2.7,2.7,0,0,0-1.27.3,2.6,2.6,0,0,0-1,1,5.49,5.49,0,0,0-.66,1.76,12.55,12.55,0,0,0-.24,2.65,13,13,0,0,0,.24,2.68,5.92,5.92,0,0,0,.66,1.81,2.8,2.8,0,0,0,1,1,2.66,2.66,0,0,0,2.53,0,2.82,2.82,0,0,0,1-1,5.92,5.92,0,0,0,.66-1.81,13,13,0,0,0,.24-2.68,12.55,12.55,0,0,0-.24-2.65,5.49,5.49,0,0,0-.66-1.76,2.62,2.62,0,0,0-1-1A2.72,2.72,0,0,0,111.3,14.06Zm0,7.3a1.61,1.61,0,1,1,1.18-.46A1.64,1.64,0,0,1,111.3,21.36Z"/><path class="cls-3" d="M125.7,27.74a4.87,4.87,0,0,1-4.14-2.06A9.84,9.84,0,0,1,120,19.75c0-2.59.5-4.55,1.52-5.87a5.32,5.32,0,0,1,8.28,0c1,1.32,1.52,3.28,1.52,5.87a9.84,9.84,0,0,1-1.52,5.93A4.87,4.87,0,0,1,125.7,27.74Zm0-13.68a2.7,2.7,0,0,0-1.27.3,2.6,2.6,0,0,0-1,1,5.49,5.49,0,0,0-.66,1.76,12.55,12.55,0,0,0-.24,2.65,13,13,0,0,0,.24,2.68,5.92,5.92,0,0,0,.66,1.81,2.8,2.8,0,0,0,1,1,2.66,2.66,0,0,0,2.53,0,2.82,2.82,0,0,0,1-1,5.92,5.92,0,0,0,.66-1.81,13,13,0,0,0,.24-2.68,12.55,12.55,0,0,0-.24-2.65,5.49,5.49,0,0,0-.66-1.76,2.62,2.62,0,0,0-1-1A2.72,2.72,0,0,0,125.7,14.06Zm0,7.3a1.61,1.61,0,1,1,1.18-.46A1.64,1.64,0,0,1,125.7,21.36Z"/><path class="cls-3" d="M134.44,23.54a3.4,3.4,0,0,1,.25-1.34,3.61,3.61,0,0,1,.68-1.07,5.49,5.49,0,0,1,1-.84,8.88,8.88,0,0,1,1.16-.66v-.09a6.61,6.61,0,0,1-1.62-1.49,3.34,3.34,0,0,1-.66-2.09,3.84,3.84,0,0,1,.37-1.68,3.76,3.76,0,0,1,1-1.27,4.83,4.83,0,0,1,1.56-.82,6.53,6.53,0,0,1,2-.29A5.3,5.3,0,0,1,143.78,13a3.74,3.74,0,0,1,1.31,3,3.17,3.17,0,0,1-.67,2,6.43,6.43,0,0,1-1.61,1.51v.1a10.86,10.86,0,0,1,1.17.67,4.38,4.38,0,0,1,.93.83,3.61,3.61,0,0,1,.63,1.08,4,4,0,0,1,.22,1.4,3.69,3.69,0,0,1-.37,1.65,3.89,3.89,0,0,1-1.09,1.32,5.38,5.38,0,0,1-1.78.87,8.37,8.37,0,0,1-2.4.31,8.25,8.25,0,0,1-2.37-.31,5.52,5.52,0,0,1-1.79-.86,4,4,0,0,1-1.13-1.32A3.71,3.71,0,0,1,134.44,23.54Zm2.44-.28a2.17,2.17,0,0,0,.92,1.83,3.81,3.81,0,0,0,2.37.69,3.56,3.56,0,0,0,2.19-.6,2,2,0,0,0,.79-1.68,1.85,1.85,0,0,0-.33-1.11,2.83,2.83,0,0,0-.88-.79A7.65,7.65,0,0,0,140.6,21c-.51-.19-1.07-.38-1.68-.59a5.71,5.71,0,0,0-1.46,1.21A2.52,2.52,0,0,0,136.88,23.26Zm4.37-4.42a3.44,3.44,0,0,0,1.51-2.64,2.24,2.24,0,0,0-.67-1.67,2.65,2.65,0,0,0-1.94-.66,2.79,2.79,0,0,0-1.77.54A1.88,1.88,0,0,0,137.7,16a2,2,0,0,0,.26,1,2.44,2.44,0,0,0,.75.75,6,6,0,0,0,1.13.6A13.48,13.48,0,0,0,141.25,18.84Z"/><path class="cls-3" d="M148.84,23.54a3.4,3.4,0,0,1,.25-1.34,3.61,3.61,0,0,1,.68-1.07,5.49,5.49,0,0,1,1-.84,8.88,8.88,0,0,1,1.16-.66v-.09a6.61,6.61,0,0,1-1.62-1.49,3.34,3.34,0,0,1-.66-2.09,3.84,3.84,0,0,1,.37-1.68,3.76,3.76,0,0,1,1-1.27,4.83,4.83,0,0,1,1.56-.82,6.53,6.53,0,0,1,2-.29A5.3,5.3,0,0,1,158.18,13a3.74,3.74,0,0,1,1.31,3,3.17,3.17,0,0,1-.67,2,6.43,6.43,0,0,1-1.61,1.51v.1a10.86,10.86,0,0,1,1.17.67,4.38,4.38,0,0,1,.93.83,3.61,3.61,0,0,1,.63,1.08,4,4,0,0,1,.22,1.4,3.69,3.69,0,0,1-.37,1.65,3.89,3.89,0,0,1-1.09,1.32,5.38,5.38,0,0,1-1.78.87,8.37,8.37,0,0,1-2.4.31,8.25,8.25,0,0,1-2.37-.31,5.52,5.52,0,0,1-1.79-.86,4,4,0,0,1-1.13-1.32A3.71,3.71,0,0,1,148.84,23.54Zm2.44-.28a2.17,2.17,0,0,0,.92,1.83,3.81,3.81,0,0,0,2.37.69,3.56,3.56,0,0,0,2.19-.6,2,2,0,0,0,.79-1.68,1.85,1.85,0,0,0-.33-1.11,2.83,2.83,0,0,0-.88-.79A7.65,7.65,0,0,0,155,21c-.51-.19-1.07-.38-1.68-.59a5.71,5.71,0,0,0-1.46,1.21A2.52,2.52,0,0,0,151.28,23.26Zm4.37-4.42a3.44,3.44,0,0,0,1.51-2.64,2.24,2.24,0,0,0-.67-1.67,2.65,2.65,0,0,0-1.94-.66,2.79,2.79,0,0,0-1.77.54A1.88,1.88,0,0,0,152.1,16a2,2,0,0,0,.26,1,2.44,2.44,0,0,0,.75.75,6,6,0,0,0,1.13.6A13.48,13.48,0,0,0,155.65,18.84Z"/><path class="cls-3" d="M164.2,23.81A7.58,7.58,0,0,0,166,25a5.28,5.28,0,0,0,2.27.49,4.19,4.19,0,0,0,2.34-.61,1.94,1.94,0,0,0,.93-1.7,2.16,2.16,0,0,0-.27-1.08,2.09,2.09,0,0,0-.85-.81,4.82,4.82,0,0,0-1.56-.52,13.38,13.38,0,0,0-2.39-.18v-2a10.42,10.42,0,0,0,2.09-.18,4.37,4.37,0,0,0,1.4-.51A2,2,0,0,0,171,16.13a1.78,1.78,0,0,0-.73-1.5,3.23,3.23,0,0,0-2-.54,4.43,4.43,0,0,0-1.86.39,7.47,7.47,0,0,0-1.62,1l-1.44-1.71a9.47,9.47,0,0,1,2.3-1.39,7,7,0,0,1,2.74-.53,8.19,8.19,0,0,1,2.16.27,4.79,4.79,0,0,1,1.69.78,3.75,3.75,0,0,1,1.11,1.27,3.69,3.69,0,0,1,.39,1.72,3,3,0,0,1-.84,2.16,5.65,5.65,0,0,1-2.25,1.34v.1a7.3,7.3,0,0,1,1.4.51,4.57,4.57,0,0,1,1.15.81A3.56,3.56,0,0,1,174,22a3.27,3.27,0,0,1,.29,1.37,3.71,3.71,0,0,1-.47,1.87,4.36,4.36,0,0,1-1.26,1.38,5.84,5.84,0,0,1-1.85.86,9,9,0,0,1-5.59-.32,6.73,6.73,0,0,1-2.23-1.54Z"/><path class="cls-3" d="M185.87,23.21h-5.23l-1.23,4.25h-2.83l5.09-15.7h3.26L190,27.46h-3ZM185.24,21l-.55-1.92c-.22-.83-.45-1.68-.69-2.56s-.48-1.76-.7-2.62h-.1c-.22.88-.45,1.76-.68,2.63s-.47,1.72-.71,2.55L181.26,21Z"/><rect class="cls-5" x="215.5" y="1" width="173" height="41"/><path class="cls-3" d="M237.2,28.24a4.87,4.87,0,0,1-4.14-2.06,9.84,9.84,0,0,1-1.52-5.93c0-2.59.5-4.55,1.52-5.87a5.32,5.32,0,0,1,8.28,0,9.5,9.5,0,0,1,1.53,5.87,9.84,9.84,0,0,1-1.53,5.93A4.85,4.85,0,0,1,237.2,28.24Zm0-13.68a2.7,2.7,0,0,0-1.27.3,2.6,2.6,0,0,0-1,1,5.49,5.49,0,0,0-.66,1.76,12.55,12.55,0,0,0-.24,2.65,13,13,0,0,0,.24,2.68,5.92,5.92,0,0,0,.66,1.81,2.8,2.8,0,0,0,1,1,2.66,2.66,0,0,0,2.53,0,2.82,2.82,0,0,0,1-1,5.92,5.92,0,0,0,.66-1.81,13,13,0,0,0,.24-2.68,12.55,12.55,0,0,0-.24-2.65,5.49,5.49,0,0,0-.66-1.76,2.62,2.62,0,0,0-1-1A2.72,2.72,0,0,0,237.2,14.56Zm0,7.3A1.6,1.6,0,0,1,236,21.4a1.83,1.83,0,0,1,0-2.49,1.6,1.6,0,0,1,1.17-.46,1.71,1.71,0,1,1,0,3.41Z"/><path class="cls-3" d="M249.9,21.84l-4-5.67h3l1.54,2.23c.19.32.4.66.62,1l.68,1h.09c.18-.34.37-.68.58-1s.4-.69.57-1l1.39-2.21h2.91l-4,5.95,4.3,5.84h-3l-1.71-2.33-.7-1c-.25-.37-.5-.72-.74-1.06h-.09c-.23.35-.44.7-.64,1s-.41.7-.63,1.07L248.53,28h-2.91Z"/><path class="cls-3" d="M266,28.24a4.87,4.87,0,0,1-4.14-2.06,9.84,9.84,0,0,1-1.52-5.93c0-2.59.5-4.55,1.52-5.87a5.32,5.32,0,0,1,8.28,0c1,1.32,1.52,3.28,1.52,5.87a9.84,9.84,0,0,1-1.52,5.93A4.87,4.87,0,0,1,266,28.24Zm0-13.68a2.7,2.7,0,0,0-1.27.3,2.6,2.6,0,0,0-1,1,5.49,5.49,0,0,0-.66,1.76,12.55,12.55,0,0,0-.24,2.65,13,13,0,0,0,.24,2.68,5.92,5.92,0,0,0,.66,1.81,2.8,2.8,0,0,0,1,1,2.66,2.66,0,0,0,2.53,0,2.82,2.82,0,0,0,1-1,5.92,5.92,0,0,0,.66-1.81,13,13,0,0,0,.24-2.68,12.55,12.55,0,0,0-.24-2.65,5.49,5.49,0,0,0-.66-1.76,2.62,2.62,0,0,0-1-1A2.72,2.72,0,0,0,266,14.56Zm0,7.3a1.61,1.61,0,1,1,1.18-.46A1.64,1.64,0,0,1,266,21.86Z"/><path class="cls-3" d="M280.4,28.24a4.87,4.87,0,0,1-4.14-2.06,9.84,9.84,0,0,1-1.52-5.93c0-2.59.5-4.55,1.52-5.87a5.32,5.32,0,0,1,8.28,0c1,1.32,1.52,3.28,1.52,5.87a9.84,9.84,0,0,1-1.52,5.93A4.87,4.87,0,0,1,280.4,28.24Zm0-13.68a2.7,2.7,0,0,0-1.27.3,2.6,2.6,0,0,0-1,1,5.49,5.49,0,0,0-.66,1.76,12.55,12.55,0,0,0-.24,2.65,13,13,0,0,0,.24,2.68,5.92,5.92,0,0,0,.66,1.81,2.8,2.8,0,0,0,1,1,2.66,2.66,0,0,0,2.53,0,2.82,2.82,0,0,0,1-1,5.92,5.92,0,0,0,.66-1.81,13,13,0,0,0,.24-2.68,12.55,12.55,0,0,0-.24-2.65,5.49,5.49,0,0,0-.66-1.76,2.62,2.62,0,0,0-1-1A2.72,2.72,0,0,0,280.4,14.56Zm0,7.3a1.61,1.61,0,1,1,1.18-.46A1.64,1.64,0,0,1,280.4,21.86Z"/><path class="cls-3" d="M294.8,28.24a4.87,4.87,0,0,1-4.14-2.06,9.84,9.84,0,0,1-1.52-5.93c0-2.59.5-4.55,1.52-5.87a5.32,5.32,0,0,1,8.28,0c1,1.32,1.52,3.28,1.52,5.87a9.84,9.84,0,0,1-1.52,5.93A4.87,4.87,0,0,1,294.8,28.24Zm0-13.68a2.7,2.7,0,0,0-1.27.3,2.6,2.6,0,0,0-1,1,5.49,5.49,0,0,0-.66,1.76,12.55,12.55,0,0,0-.24,2.65,13,13,0,0,0,.24,2.68,5.92,5.92,0,0,0,.66,1.81,2.8,2.8,0,0,0,1,1,2.66,2.66,0,0,0,2.53,0,2.82,2.82,0,0,0,1-1,5.92,5.92,0,0,0,.66-1.81,13,13,0,0,0,.24-2.68,12.55,12.55,0,0,0-.24-2.65,5.49,5.49,0,0,0-.66-1.76,2.62,2.62,0,0,0-1-1A2.72,2.72,0,0,0,294.8,14.56Zm0,7.3A1.61,1.61,0,1,1,296,21.4,1.64,1.64,0,0,1,294.8,21.86Z"/><path class="cls-3" d="M309.2,28.24a4.87,4.87,0,0,1-4.14-2.06,9.84,9.84,0,0,1-1.52-5.93c0-2.59.5-4.55,1.52-5.87a5.32,5.32,0,0,1,8.28,0c1,1.32,1.52,3.28,1.52,5.87a9.84,9.84,0,0,1-1.52,5.93A4.87,4.87,0,0,1,309.2,28.24Zm0-13.68a2.7,2.7,0,0,0-1.27.3,2.6,2.6,0,0,0-1,1,5.49,5.49,0,0,0-.66,1.76,12.55,12.55,0,0,0-.24,2.65,13,13,0,0,0,.24,2.68,5.92,5.92,0,0,0,.66,1.81,2.8,2.8,0,0,0,1,1,2.66,2.66,0,0,0,2.53,0,2.82,2.82,0,0,0,1-1,5.92,5.92,0,0,0,.66-1.81,13,13,0,0,0,.24-2.68,12.55,12.55,0,0,0-.24-2.65,5.49,5.49,0,0,0-.66-1.76,2.62,2.62,0,0,0-1-1A2.72,2.72,0,0,0,309.2,14.56Zm0,7.3a1.61,1.61,0,1,1,1.18-.46A1.64,1.64,0,0,1,309.2,21.86Z"/><path class="cls-3" d="M317.94,24a3.4,3.4,0,0,1,.25-1.34,3.61,3.61,0,0,1,.68-1.07,5.49,5.49,0,0,1,1-.84,8.88,8.88,0,0,1,1.16-.66V20a6.61,6.61,0,0,1-1.62-1.49,3.34,3.34,0,0,1-.66-2.09,3.84,3.84,0,0,1,.37-1.68,3.76,3.76,0,0,1,1-1.27,4.83,4.83,0,0,1,1.56-.82,6.53,6.53,0,0,1,2-.29,5.3,5.3,0,0,1,3.58,1.13,3.74,3.74,0,0,1,1.31,3,3.17,3.17,0,0,1-.67,2A6.43,6.43,0,0,1,326.31,20v.1a10.86,10.86,0,0,1,1.17.67,4.38,4.38,0,0,1,.93.83,3.61,3.61,0,0,1,.63,1.08,4,4,0,0,1,.22,1.4,3.69,3.69,0,0,1-.37,1.65,3.89,3.89,0,0,1-1.09,1.32,5.38,5.38,0,0,1-1.78.87,8.37,8.37,0,0,1-2.4.31,8.25,8.25,0,0,1-2.37-.31,5.52,5.52,0,0,1-1.79-.86,4,4,0,0,1-1.13-1.32A3.71,3.71,0,0,1,317.94,24Zm2.44-.28a2.17,2.17,0,0,0,.92,1.83,3.81,3.81,0,0,0,2.37.69,3.56,3.56,0,0,0,2.19-.6,2,2,0,0,0,.79-1.68,1.85,1.85,0,0,0-.33-1.11,2.83,2.83,0,0,0-.88-.79,7.65,7.65,0,0,0-1.34-.61c-.51-.19-1.07-.38-1.68-.59A5.71,5.71,0,0,0,321,22.11,2.52,2.52,0,0,0,320.38,23.76Zm4.37-4.42a3.44,3.44,0,0,0,1.51-2.64,2.24,2.24,0,0,0-.67-1.67,2.65,2.65,0,0,0-1.94-.66,2.79,2.79,0,0,0-1.77.54,1.88,1.88,0,0,0-.68,1.55,2,2,0,0,0,.26,1,2.44,2.44,0,0,0,.75.75,6,6,0,0,0,1.13.6A13.48,13.48,0,0,0,324.75,19.34Z"/><path class="cls-3" d="M332.34,24a3.4,3.4,0,0,1,.25-1.34,3.61,3.61,0,0,1,.68-1.07,5.49,5.49,0,0,1,1-.84,8.88,8.88,0,0,1,1.16-.66V20a6.61,6.61,0,0,1-1.62-1.49,3.34,3.34,0,0,1-.66-2.09,3.84,3.84,0,0,1,.37-1.68,3.76,3.76,0,0,1,1-1.27,4.83,4.83,0,0,1,1.56-.82,6.53,6.53,0,0,1,2-.29,5.3,5.3,0,0,1,3.58,1.13,3.74,3.74,0,0,1,1.31,3,3.17,3.17,0,0,1-.67,2A6.43,6.43,0,0,1,340.71,20v.1a10.86,10.86,0,0,1,1.17.67,4.38,4.38,0,0,1,.93.83,3.61,3.61,0,0,1,.63,1.08,4,4,0,0,1,.22,1.4,3.69,3.69,0,0,1-.37,1.65,3.89,3.89,0,0,1-1.09,1.32,5.38,5.38,0,0,1-1.78.87,8.37,8.37,0,0,1-2.4.31,8.25,8.25,0,0,1-2.37-.31,5.52,5.52,0,0,1-1.79-.86,4,4,0,0,1-1.13-1.32A3.71,3.71,0,0,1,332.34,24Zm2.44-.28a2.17,2.17,0,0,0,.92,1.83,3.81,3.81,0,0,0,2.37.69,3.56,3.56,0,0,0,2.19-.6,2,2,0,0,0,.79-1.68,1.85,1.85,0,0,0-.33-1.11,2.83,2.83,0,0,0-.88-.79,7.65,7.65,0,0,0-1.34-.61c-.51-.19-1.07-.38-1.68-.59a5.71,5.71,0,0,0-1.46,1.21A2.52,2.52,0,0,0,334.78,23.76Zm4.37-4.42a3.44,3.44,0,0,0,1.51-2.64A2.24,2.24,0,0,0,340,15a2.65,2.65,0,0,0-1.94-.66,2.79,2.79,0,0,0-1.77.54,1.88,1.88,0,0,0-.68,1.55,2,2,0,0,0,.26,1,2.44,2.44,0,0,0,.75.75,6,6,0,0,0,1.13.6A13.48,13.48,0,0,0,339.15,19.34Z"/><path class="cls-3" d="M347.7,24.31a7.58,7.58,0,0,0,1.78,1.19,5.28,5.28,0,0,0,2.27.49,4.19,4.19,0,0,0,2.34-.61,1.94,1.94,0,0,0,.93-1.7,2.16,2.16,0,0,0-.27-1.08,2.09,2.09,0,0,0-.85-.81,4.82,4.82,0,0,0-1.56-.52,13.38,13.38,0,0,0-2.39-.18v-2A10.42,10.42,0,0,0,352,18.9a4.37,4.37,0,0,0,1.4-.51,2,2,0,0,0,1.05-1.76,1.78,1.78,0,0,0-.73-1.5,3.23,3.23,0,0,0-2-.54,4.43,4.43,0,0,0-1.86.39A7.47,7.47,0,0,0,348.32,16l-1.44-1.71a9.47,9.47,0,0,1,2.3-1.39,7,7,0,0,1,2.74-.53,8.19,8.19,0,0,1,2.16.27,4.79,4.79,0,0,1,1.69.78,3.75,3.75,0,0,1,1.11,1.27,3.69,3.69,0,0,1,.39,1.72,3,3,0,0,1-.84,2.16,5.65,5.65,0,0,1-2.25,1.34V20a7.3,7.3,0,0,1,1.4.51,4.57,4.57,0,0,1,1.15.81,3.56,3.56,0,0,1,.78,1.1,3.27,3.27,0,0,1,.29,1.37,3.71,3.71,0,0,1-.47,1.87,4.36,4.36,0,0,1-1.26,1.38,5.84,5.84,0,0,1-1.85.86,9,9,0,0,1-5.59-.32,6.73,6.73,0,0,1-2.23-1.54Z"/><path class="cls-3" d="M361.83,12.26h4.63a11.82,11.82,0,0,1,2.22.2,5.87,5.87,0,0,1,1.77.65,3.23,3.23,0,0,1,1.16,1.19,3.66,3.66,0,0,1,.42,1.82,3.54,3.54,0,0,1-.67,2.09,3.48,3.48,0,0,1-2.07,1.32v.1a4.56,4.56,0,0,1,2.63,1.21,3.45,3.45,0,0,1,.9,2.51,4.51,4.51,0,0,1-.44,2,4.11,4.11,0,0,1-1.25,1.44,5.63,5.63,0,0,1-1.89.85,10,10,0,0,1-2.39.28h-5Zm4.37,6.5a3.74,3.74,0,0,0,2.38-.6,2.07,2.07,0,0,0,.71-1.7,1.71,1.71,0,0,0-.75-1.56,4.28,4.28,0,0,0-2.27-.48h-1.65v4.34Zm.36,7a4.55,4.55,0,0,0,2.64-.65,2.27,2.27,0,0,0,.91-2c0-1.6-1.18-2.4-3.55-2.4h-1.94v5Z"/><line class="cls-6" x1="171" y1="78.5" x2="171" y2="53.52"/><polygon class="cls-3" points="174.49 54.55 171 48.5 167.51 54.55 174.49 54.55"/><line class="cls-6" x1="354" y1="78.5" x2="354" y2="53.52"/><polygon class="cls-3" points="357.49 54.55 354 48.5 350.51 54.55 357.49 54.55"/><path class="cls-2" d="M53.93,137.7,50,132h3l1.53,2.24q.29.48.63,1c.22.35.44.69.67,1h.09c.18-.33.37-.68.58-1s.4-.69.58-1L58.42,132h2.9l-4,6,4.3,5.83h-3l-1.7-2.33c-.23-.32-.46-.66-.71-1l-.73-1.06h-.1c-.22.35-.44.7-.64,1s-.41.7-.63,1.06l-1.54,2.31h-2.9Z"/><path class="cls-1" d="M79.11,132.68H89.76v2H79.11Zm0,5.35H89.76v2H79.11Z"/><path class="cls-3" d="M125,147.32c2-.81,3.06-2,3.07-3.69l-.33,0a2.47,2.47,0,0,1-1.59-.54,1.92,1.92,0,0,1-.67-1.6,1.94,1.94,0,0,1,.68-1.57,2.51,2.51,0,0,1,1.62-.56,2.19,2.19,0,0,1,1.95,1,4.68,4.68,0,0,1,.65,2.64,5.85,5.85,0,0,1-1.2,3.73,7.11,7.11,0,0,1-3.46,2.27Zm.29-13.8a2.38,2.38,0,0,1,.67-1.74,2.48,2.48,0,0,1,3.41,0,2.38,2.38,0,0,1,.67,1.74,2.35,2.35,0,0,1-.67,1.74,2.45,2.45,0,0,1-3.41,0A2.35,2.35,0,0,1,125.26,133.52Z"/><path d="M116.88,131.67a4.26,4.26,0,0,0-1.28-.82,3.92,3.92,0,0,0-1.57-.33,4.23,4.23,0,0,0-1.55.29,3.22,3.22,0,0,0-1.3,1,5.29,5.29,0,0,0-.91,1.76,10.32,10.32,0,0,0-.4,2.68,7.08,7.08,0,0,1,1.95-1.36,5,5,0,0,1,2.06-.49,6.06,6.06,0,0,1,1.9.29,4,4,0,0,1,2.49,2.35,5.54,5.54,0,0,1,.36,2.09,4.75,4.75,0,0,1-1.59,3.65,5.43,5.43,0,0,1-1.69,1,5.73,5.73,0,0,1-2,.36,6,6,0,0,1-2.29-.45,5.21,5.21,0,0,1-1.92-1.35A6.8,6.8,0,0,1,107.8,140a10.18,10.18,0,0,1-.49-3.34,11.82,11.82,0,0,1,.54-3.81,7.38,7.38,0,0,1,1.45-2.6,5.78,5.78,0,0,1,2.07-1.48,6.36,6.36,0,0,1,2.44-.48,6.43,6.43,0,0,1,2.65.5,6.81,6.81,0,0,1,1.91,1.22ZM113.31,142a2.81,2.81,0,0,0,1.06-.19,2.64,2.64,0,0,0,.88-.56,2.49,2.49,0,0,0,.6-.91,3.43,3.43,0,0,0,.22-1.24,2.64,2.64,0,0,0-.74-2,2.85,2.85,0,0,0-2-.67,4,4,0,0,0-1.64.39,5.33,5.33,0,0,0-1.7,1.38,5.08,5.08,0,0,0,1.15,2.94A3,3,0,0,0,113.31,142Z"/><polyline class="cls-6" points="111 108.52 111 124.5 353 124.5 353 108.52"/><polygon class="cls-3" points="107.51 109.55 111 103.5 114.49 109.55 107.51 109.55"/><polygon class="cls-3" points="356.49 109.55 353 103.5 349.51 109.55 356.49 109.55"/><polyline class="cls-6" points="170 108.52 170 114.5 296 114.5 296 108.52"/><polygon class="cls-3" points="166.51 109.55 170 103.5 173.49 109.55 166.51 109.55"/><polygon class="cls-3" points="299.49 109.55 296 103.5 292.51 109.55 299.49 109.55"/><polyline class="cls-6" points="24 20.5 12 20.5 12 183.5 35.98 183.5"/><polygon class="cls-3" points="34.95 186.99 41 183.5 34.95 180.01 34.95 186.99"/><polyline class="cls-6" points="343.02 183.5 415 183.5 415 20.5 401 20.5"/><polygon class="cls-3" points="344.05 186.99 338 183.5 344.05 180.01 344.05 186.99"/><rect class="cls-7" y="95.5" width="23" height="23"/><path class="cls-3" d="M15.41,102.49a4.29,4.29,0,0,0-1.28-.83,3.9,3.9,0,0,0-1.57-.32,4.22,4.22,0,0,0-1.55.28,3.42,3.42,0,0,0-1.3,1,5.25,5.25,0,0,0-.91,1.77A10.3,10.3,0,0,0,8.4,107a7.26,7.26,0,0,1,1.95-1.35,4.81,4.81,0,0,1,2.06-.49,6.06,6.06,0,0,1,1.9.28,4.34,4.34,0,0,1,1.5.88,4,4,0,0,1,1,1.48,5.49,5.49,0,0,1,.36,2.08,4.84,4.84,0,0,1-.43,2.08,4.69,4.69,0,0,1-1.16,1.57,5.43,5.43,0,0,1-1.69,1,5.73,5.73,0,0,1-2,.36,6.14,6.14,0,0,1-2.29-.44,5.24,5.24,0,0,1-1.92-1.36,6.71,6.71,0,0,1-1.32-2.33,10.07,10.07,0,0,1-.49-3.33,11.92,11.92,0,0,1,.54-3.82,7.24,7.24,0,0,1,1.45-2.59A5.81,5.81,0,0,1,9.9,99.56a6.36,6.36,0,0,1,2.44-.48,6.59,6.59,0,0,1,2.65.5,6.83,6.83,0,0,1,1.91,1.23Zm-3.57,10.32a3,3,0,0,0,1.06-.19,2.67,2.67,0,0,0,.88-.57,2.49,2.49,0,0,0,.6-.91,3.39,3.39,0,0,0,.22-1.24,2.64,2.64,0,0,0-.74-2,2.89,2.89,0,0,0-2-.67,3.86,3.86,0,0,0-1.64.4A5.07,5.07,0,0,0,8.5,109a5.08,5.08,0,0,0,1.15,2.94A3,3,0,0,0,11.84,112.81Z"/><rect class="cls-7" x="404" y="95.5" width="23" height="23"/><path class="cls-3" d="M411.06,110.89a9.17,9.17,0,0,0,1.72,1.14,4.8,4.8,0,0,0,2.26.49,3.81,3.81,0,0,0,2.42-.77,2.91,2.91,0,0,0,.07-4.27,3.58,3.58,0,0,0-2.37-.74,4.39,4.39,0,0,0-1.44.2,8.83,8.83,0,0,0-1.39.66l-1.32-.84.48-7.54h9v2.33h-6.6l-.33,3.7a7.27,7.27,0,0,1,1.15-.37,5.25,5.25,0,0,1,1.25-.14,7.13,7.13,0,0,1,2,.29,4.64,4.64,0,0,1,1.66.88,4.12,4.12,0,0,1,1.13,1.49,5,5,0,0,1,.42,2.12,5,5,0,0,1-.48,2.23,4.93,4.93,0,0,1-1.29,1.66,5.81,5.81,0,0,1-1.86,1,7,7,0,0,1-2.2.35,7.85,7.85,0,0,1-3.35-.64,8.89,8.89,0,0,1-2.24-1.48Z"/><rect class="cls-7" x="205.89" y="111.29" width="54.22" height="7.43"/><path class="cls-3" d="M212.91,115.43a4.46,4.46,0,0,1,.4-1.94,4.27,4.27,0,0,1,1.08-1.45,4.77,4.77,0,0,1,1.59-.9,5.74,5.74,0,0,1,1.9-.31,4.72,4.72,0,0,1,3.25,1.23l-1,1.28a4.39,4.39,0,0,0-1-.62,3.06,3.06,0,0,0-1.12-.22,3,3,0,0,0-2.14.8,2.82,2.82,0,0,0-.82,2.13,3,3,0,0,0,.22,1.19,2.65,2.65,0,0,0,.59.92,2.6,2.6,0,0,0,.92.59,3.51,3.51,0,0,0,2.54-.08,6.05,6.05,0,0,0,1.13-.68l.86,1.32a5.11,5.11,0,0,1-1.68,1,5.5,5.5,0,0,1-1.87.33,5.84,5.84,0,0,1-1.91-.3,4.47,4.47,0,0,1-1.54-.9,4,4,0,0,1-1-1.44A4.8,4.8,0,0,1,212.91,115.43Z"/><path class="cls-3" d="M223.25,115.43a4.76,4.76,0,0,1,.37-1.94,4.15,4.15,0,0,1,1-1.45,4.21,4.21,0,0,1,1.4-.9,4.6,4.6,0,0,1,3.32,0,4.35,4.35,0,0,1,1.41.9,4.29,4.29,0,0,1,1,1.45,5.27,5.27,0,0,1,0,3.88,4.35,4.35,0,0,1-1,1.44,4.19,4.19,0,0,1-1.41.9,4.74,4.74,0,0,1-3.32,0,4.06,4.06,0,0,1-1.4-.9,4.2,4.2,0,0,1-1-1.44A4.8,4.8,0,0,1,223.25,115.43Zm2.12,0a3.35,3.35,0,0,0,.61,2.11,2.17,2.17,0,0,0,3.35,0,3.41,3.41,0,0,0,.6-2.11,3.45,3.45,0,0,0-.6-2.13,2.15,2.15,0,0,0-3.35,0A3.39,3.39,0,0,0,225.37,115.43Z"/><path class="cls-3" d="M236.53,120.51v2.74h-2.07V111h1.7l.16,1h.05a5.4,5.4,0,0,1,1.31-.86,3.35,3.35,0,0,1,1.49-.35,3.5,3.5,0,0,1,1.52.31,3,3,0,0,1,1.12.9,4.05,4.05,0,0,1,.7,1.41,6.56,6.56,0,0,1,.24,1.84,6,6,0,0,1-.32,2,4.37,4.37,0,0,1-.86,1.48,4,4,0,0,1-1.25.92,3.56,3.56,0,0,1-1.46.32,3.11,3.11,0,0,1-1.23-.27,3.86,3.86,0,0,1-1.17-.76Zm0-3a2.85,2.85,0,0,0,1,.63,2.77,2.77,0,0,0,.92.18,2,2,0,0,0,1.57-.76,3.54,3.54,0,0,0,.62-2.26,3.72,3.72,0,0,0-.48-2,1.74,1.74,0,0,0-1.55-.73,2.43,2.43,0,0,0-1,.25,4.18,4.18,0,0,0-1.05.8Z"/><path class="cls-3" d="M245.64,121.7a1.5,1.5,0,0,0,.37,0,2,2,0,0,0,1.34-.42,2.77,2.77,0,0,0,.77-1.08l.21-.55L244.41,111h2.05l1.8,4.3c.16.39.32.81.48,1.25s.31.88.48,1.32h.07c.13-.42.27-.85.43-1.29s.3-.87.45-1.28l1.58-4.3h1.94L250,120.19a8.67,8.67,0,0,1-.63,1.33,4.09,4.09,0,0,1-.81,1,3.31,3.31,0,0,1-1.07.64,4,4,0,0,1-1.39.23,4.83,4.83,0,0,1-.68-.05,2.82,2.82,0,0,1-.57-.13l.39-1.61A2.37,2.37,0,0,0,245.64,121.7Z"/><path class="cls-8" d="M113,62.62a3.49,3.49,0,0,1,3.49,3.47v2.2a3.49,3.49,0,1,1-7,0V67.08a.37.37,0,0,1,.61-.27,4.15,4.15,0,0,0,1,.7.36.36,0,0,1,.21.33v.43A1.67,1.67,0,0,0,113,69.94a1.65,1.65,0,0,0,1.67-1.65V66.11A1.65,1.65,0,0,0,113,64.45a2.32,2.32,0,0,0-.31,0,.37.37,0,0,1-.32-.09.89.89,0,0,1-.29-.67V63a.37.37,0,0,1,.3-.36,4.32,4.32,0,0,1,.62-.05Z"/><path class="cls-9" d="M113,58a3.49,3.49,0,0,0-3.49,3.49v2.18h0A3.48,3.48,0,0,0,113,67.2a4.18,4.18,0,0,0,.61,0,.37.37,0,0,0,.3-.36V66.1a.89.89,0,0,0-.29-.67.37.37,0,0,0-.32-.09,2.16,2.16,0,0,1-.3,0,1.66,1.66,0,0,1-1.66-1.66V61.53A1.65,1.65,0,0,1,113,59.88a1.67,1.67,0,0,1,1.64,1.67V62a.36.36,0,0,0,.21.33,4.15,4.15,0,0,1,1,.7.37.37,0,0,0,.62-.27V61.53A3.5,3.5,0,0,0,113,58Z"/><line class="cls-10" x1="113" y1="56.77" x2="113" y2="50.52"/><polygon class="cls-8" points="116.49 51.55 113 45.5 109.51 51.55 116.49 51.55"/><line class="cls-11" x1="113" y1="73.23" x2="113" y2="79.48"/><polygon class="cls-9" points="109.51 78.45 113 84.5 116.49 78.45 109.51 78.45"/><path class="cls-8" d="M296,62.62a3.49,3.49,0,0,1,3.49,3.47v2.2a3.49,3.49,0,0,1-7,0V67.08a.37.37,0,0,1,.61-.27,4.15,4.15,0,0,0,1,.7.36.36,0,0,1,.21.33v.43A1.67,1.67,0,0,0,296,69.94a1.65,1.65,0,0,0,1.67-1.65V66.11A1.65,1.65,0,0,0,296,64.45a2.32,2.32,0,0,0-.31,0,.37.37,0,0,1-.32-.09.89.89,0,0,1-.29-.67V63a.37.37,0,0,1,.3-.36,4.32,4.32,0,0,1,.62-.05Z"/><path class="cls-9" d="M296,58a3.49,3.49,0,0,0-3.49,3.49v2.18h0A3.48,3.48,0,0,0,296,67.2a4.18,4.18,0,0,0,.61,0,.37.37,0,0,0,.3-.36V66.1a.89.89,0,0,0-.29-.67.37.37,0,0,0-.32-.09,2.16,2.16,0,0,1-.3,0,1.66,1.66,0,0,1-1.66-1.66V61.53A1.65,1.65,0,0,1,296,59.88a1.67,1.67,0,0,1,1.64,1.67V62a.36.36,0,0,0,.21.33,4.15,4.15,0,0,1,1,.7.37.37,0,0,0,.62-.27V61.53A3.5,3.5,0,0,0,296,58Z"/><line class="cls-10" x1="296" y1="56.77" x2="296" y2="50.52"/><polygon class="cls-8" points="299.49 51.55 296 45.5 292.51 51.55 299.49 51.55"/><line class="cls-11" x1="296" y1="73.23" x2="296" y2="79.48"/><polygon class="cls-9" points="292.51 78.45 296 84.5 299.49 78.45 292.51 78.45"/></g></g></svg>